<?xml version="1.0" encoding="utf-8"?>
<!-- Generator: Adobe Illustrator 22.0.1, SVG Export Plug-In . SVG Version: 6.00 Build 0)  -->
<svg version="1.1" id="圖層_1" xmlns="http://www.w3.org/2000/svg" xmlns:xlink="http://www.w3.org/1999/xlink" x="0px" y="0px"
	 viewBox="0 0 225.7 223.5" style="enable-background:new 0 0 225.7 223.5;" xml:space="preserve">
<g>
	<g>
		<g>
			<path d="M123.2,44.6h-4.7c0.3-4.6,0.4-8.2,0.4-11c0-8.3-1.7-14-5.1-17.3s-7.7-4.9-13-4.9c-7,0-14.2,2.8-21.7,8.5
				c-7.5,5.7-13.9,14.5-19.3,26.5c-5.4,12-8.1,24.3-8.1,37c0,12.2,2.5,21.6,7.5,28.2s11.3,9.8,18.9,9.8c10.3,0,19.7-6.2,28.2-18.5
				c0.9-1.2,1.8-1.8,2.7-1.8c0.8,0,1.4,0.3,1.9,0.7c0.5,0.5,0.8,1.1,0.8,1.7c0,1.6-1.9,4.7-5.8,9.3c-3.9,4.6-8.8,8.5-14.7,11.6
				c-5.9,3.1-11.7,4.6-17.5,4.6c-6.9,0-13.3-1.8-19.2-5.4c-5.9-3.6-10.5-8.7-13.8-15.4c-3.3-6.7-4.9-14.6-4.9-23.8
				c0-12.8,3.4-25.6,10.1-38.3c6.7-12.7,15.1-22.5,25.2-29.4C81,9.7,90.8,6.2,100.4,6.2c3.5,0,6.9,0.4,10.3,1.1
				c1.5,0.4,7.5,2.4,18.1,6.1C125.5,23.5,123.6,33.9,123.2,44.6z"/>
		</g>
		<g>
			<path d="M157.5,157.3l-1.2,5c-4,0.9-7.4,1.3-9.9,1.3c-2.5,0-6.5-0.3-12.2-0.8c-4.3-0.4-8.1-0.5-11.5-0.5
				c-5.9,0-11.9,0.5-18.1,1.6l1.2-4.8c5.9-0.6,10.2-1.8,12.9-3.7c1.9-1.3,3.6-3.6,5-6.9c1.4-3.3,4.5-14.6,9.4-34.1l11.3-46.6
				l0.6-2.2c-3.5-0.2-6.1-0.3-7.8-0.3c-10.8,0-19.4,1.2-25.8,3.5c-6.4,2.3-11.1,5.8-14.3,10.2c-3.2,4.5-4.8,9.3-4.8,14.4
				c0,1.8,0.3,3.5,1,5c0.5,1.1,1.8,2.8,3.9,5.1c2,2.2,3,4.2,3,6c0,1.6-0.6,2.9-1.8,4c-1.2,1.1-2.6,1.7-4.2,1.7c-2.5,0-4.5-1.2-6-3.5
				c-2.2-3.5-3.3-7.9-3.3-13.2c0-7.1,2.2-14.1,6.6-20.8c4.4-6.7,10.5-12,18.2-15.6s17.1-5.5,28.2-5.5c5.3,0,13.7,0.8,25.2,2.3
				c8.2,1.1,14.2,1.6,17.8,1.6s6.3-0.6,7.8-1.8c1.5-1.2,2.3-2.9,2.3-4.9c0-0.4-0.1-1.2-0.3-2.5c-0.2-1.1-0.3-1.8-0.3-2.2
				c0-1.6,0.5-2.9,1.6-4s2.3-1.6,3.8-1.6c1.8,0,3.2,0.6,4.4,1.9c1.1,1.3,1.7,3,1.7,5.2c0,4.5-2.4,8.3-7.1,11.5
				c-4.7,3.2-12.7,4.8-23.8,4.8c-4,0-8.2-0.2-12.7-0.5c-0.6,2.1-2.4,9.3-5.5,21.4l-7.7,30.4l-4.7,18.5l-4.8,21.2
				c3.9,0.5,7.2,0.7,9.8,0.7C149.1,158.8,153.2,158.3,157.5,157.3z"/>
		</g>
	</g>
	<g>
		<path d="M30.4,194.1h-1.3c0.1-1.2,0.1-2.2,0.1-2.9c0-2.2-0.5-3.7-1.4-4.6s-2.1-1.3-3.5-1.3c-1.9,0-3.8,0.8-5.8,2.3
			s-3.7,3.9-5.2,7.1s-2.2,6.5-2.2,9.9c0,3.3,0.7,5.8,2,7.5s3,2.6,5,2.6c2.7,0,5.2-1.6,7.5-4.9c0.2-0.3,0.5-0.5,0.7-0.5
			c0.2,0,0.4,0.1,0.5,0.2s0.2,0.3,0.2,0.5c0,0.4-0.5,1.3-1.6,2.5s-2.3,2.3-3.9,3.1s-3.1,1.2-4.7,1.2c-1.8,0-3.6-0.5-5.1-1.4
			s-2.8-2.3-3.7-4.1s-1.3-3.9-1.3-6.4c0-3.4,0.9-6.8,2.7-10.2s4-6,6.7-7.9s5.3-2.8,7.9-2.8c0.9,0,1.8,0.1,2.7,0.3
			c0.4,0.1,2,0.6,4.8,1.6C31,188.5,30.5,191.2,30.4,194.1z"/>
		<path d="M35.9,212h-3.5l1.6-6.3c0.8-3.1,1.5-6,2.1-8.8c0.1-0.7,0.2-1.1,0.2-1.3c0-0.4-0.2-0.6-0.5-0.6c-0.2,0-0.6,0.2-1.1,0.5
			s-1.4,1.1-2.6,2.4l-0.7-0.8c1.5-1.6,3-2.8,4.5-3.6c1.5-0.8,2.6-1.2,3.4-1.2c0.3,0,0.5,0.1,0.7,0.2s0.2,0.3,0.2,0.5
			c0,0.2-0.1,0.7-0.3,1.6l-1,4.2c1.6-2.5,3.4-4.6,5.4-6.4c1-0.8,1.8-1.3,2.4-1.3c0.5,0,0.9,0.2,1.2,0.5c0.3,0.3,0.5,0.7,0.5,1.1
			c0,0.4-0.2,0.8-0.5,1.1c-0.3,0.3-1.1,0.6-2.3,1.1c-1.2,0.4-2.1,0.9-2.8,1.4c-0.7,0.5-1.5,1.4-2.4,2.5c-0.9,1.1-1.5,2.1-1.8,2.9
			s-0.9,2.8-1.6,5.8L35.9,212z"/>
		<path d="M61.7,192.9h3.3l-2.2,8.2c-1.3,4.8-1.9,7.5-1.9,8.1c0,0.3,0.1,0.5,0.2,0.7s0.3,0.2,0.5,0.2c0.3,0,0.6-0.1,0.9-0.4
			c0.5-0.4,1.5-1.3,2.9-2.7l0.8,0.9c-3.1,3.3-5.5,4.9-6.9,4.9c-0.5,0-0.9-0.2-1.3-0.6s-0.5-0.9-0.5-1.6c0-0.8,0.2-1.9,0.5-3.3
			c-1.4,1.6-3.1,3-5.2,4.2c-1.4,0.8-2.5,1.2-3.5,1.2c-0.5,0-1-0.2-1.3-0.5c-0.3-0.4-0.5-0.9-0.5-1.7c0-0.6,0.1-1.3,0.2-2
			c0.2-1,0.7-3,1.5-5.9c1-3.8,1.6-6,1.6-6.8c0-0.4-0.2-0.7-0.5-0.7c-0.3,0-0.7,0.1-1.1,0.4s-1.3,1-2.5,2.1l-1-0.8
			c2.1-1.9,3.7-3.1,4.8-3.7s2-0.9,2.7-0.9c0.4,0,0.7,0.1,0.9,0.4c0.2,0.3,0.4,0.7,0.4,1.3c0,1.1-0.6,3.7-1.7,8c-1,3.8-1.5,6-1.5,6.5
			c0,0.3,0.1,0.6,0.3,0.8c0.2,0.2,0.4,0.4,0.7,0.4c0.9,0,2.1-0.7,3.7-2.2s2.7-3.1,3.2-4.9L61.7,192.9z"/>
		<path d="M80.9,206.9l0.5,1.4c-3.7,2.9-6.9,4.4-9.4,4.4c-1.4,0-2.3-0.5-3-1.5S68,209,68,207.5c0-2.5,0.7-5,2-7.6s2.9-4.6,4.8-6
			c1.5-1.1,3.1-1.6,5-1.6c1.2,0,2,0.2,2.6,0.7s0.9,1,0.9,1.6c0,0.5-0.2,0.9-0.5,1.2s-0.8,0.5-1.3,0.5c-0.5,0-1.3-0.3-2.1-0.8
			c-0.9-0.5-1.6-0.8-2.2-0.8c-0.8,0-1.5,0.3-2.3,1c-0.8,0.7-1.5,2-2.2,4s-1,4-1,6c0,1.5,0.3,2.6,0.9,3.4c0.4,0.6,1,0.9,1.8,0.9
			C76.1,210.1,78.3,209,80.9,206.9z"/>
		<path d="M85,197.7l-1-0.8c1.6-1.7,3-2.9,4.3-3.7c1.3-0.7,2.4-1.1,3.3-1.1c0.5,0,0.9,0.1,1.1,0.3s0.4,0.5,0.4,0.9
			c0,0.5-0.5,2.4-1.5,5.8c-1.7,5.5-2.5,8.9-2.5,10c0,0.2,0.1,0.4,0.2,0.6s0.2,0.2,0.4,0.2c0.5,0,1.8-1,3.8-2.9l0.9,0.9
			c-2.1,2-3.7,3.3-4.7,3.9s-1.8,0.8-2.4,0.8c-0.5,0-1-0.2-1.3-0.5s-0.5-0.8-0.5-1.4c0-2,1.2-6.7,3.5-14.3c0.1-0.4,0.2-0.7,0.2-1
			c0-0.3-0.1-0.5-0.4-0.5c-0.3,0-0.7,0.1-1.1,0.4S86.4,196.4,85,197.7z M94.3,182.2c0.5,0,0.9,0.2,1.2,0.5s0.5,0.7,0.5,1.2
			c0,0.7-0.2,1.3-0.7,1.8s-1,0.8-1.6,0.8c-0.5,0-0.9-0.2-1.2-0.5s-0.5-0.8-0.5-1.3c0-0.7,0.2-1.3,0.7-1.8S93.6,182.2,94.3,182.2z"/>
		<path d="M111.8,191.9l1.5-0.3l-1.8,5.9c-0.7,2.4-1.4,5.1-2,8.2c-0.3,1.7-0.5,2.8-0.5,3.2s0.2,0.7,0.6,0.7c0.3,0,0.6-0.2,1.2-0.5
			c1-0.6,1.9-1.3,2.8-2.2l0.8,0.9c-1.8,1.6-2.9,2.6-3.4,3c-1,0.7-2,1.2-2.9,1.5c-0.6,0.2-1.2,0.3-1.7,0.3c-0.4,0-0.7-0.1-0.9-0.3
			s-0.3-0.5-0.3-0.8c0-0.2,0.1-0.6,0.2-1l0.9-3.2c-1.3,1.6-2.9,3-4.8,4.1c-1.1,0.7-2.2,1.1-3.1,1.1c-0.9,0-1.6-0.3-2.1-1
			c-0.7-0.9-1-2-1-3.4c0-1.7,0.4-3.5,1.3-5.5s2.1-3.9,3.6-5.5s3-2.9,4.7-3.7c1.3-0.6,2.9-0.9,4.9-0.9c0.5,0,1,0,1.5,0.1L111.8,191.9
			z M108.9,195.5c-0.8-0.2-1.6-0.3-2.1-0.3c-1.4,0-2.6,0.4-3.7,1.2s-2,2.2-2.9,4.2s-1.3,4-1.3,6c0,1.1,0.2,1.8,0.5,2.3
			s0.8,0.7,1.4,0.7c1.1,0,2.2-0.6,3.5-1.7s2.1-2.8,2.7-5L108.9,195.5z"/>
		<path d="M125.7,206.4l0.8,0.8c-1.2,1.4-2.7,2.6-4.3,3.8s-3,1.7-4.1,1.7c-0.5,0-0.9-0.2-1.2-0.6s-0.5-0.9-0.5-1.5
			c0-1.3,0.5-3.8,1.5-7.8l2.5-10.3c0.9-3.7,1.7-6.2,2.3-7.5c1-1.9,2.3-3.4,4.1-4.5c1.8-1.1,3.6-1.6,5.6-1.6c0.7,0,1.2,0.2,1.6,0.5
			c0.4,0.3,0.6,0.7,0.6,1.2c0,0.5-0.2,0.9-0.6,1.2s-0.9,0.5-1.6,0.5c-0.5,0-1.1-0.1-2-0.2c-0.7-0.1-1.4-0.2-2.1-0.2
			c-0.6,0-1.1,0.1-1.4,0.4c-0.5,0.4-0.9,1.2-1.2,2.4s-1,3.6-1.8,7.1l-2.3,9.8c-1.2,4.9-1.7,7.5-1.7,7.7c0,0.5,0.2,0.8,0.5,0.8
			c0.3,0,0.8-0.2,1.5-0.6C123.1,208.7,124.4,207.6,125.7,206.4z"/>
		<path d="M157.2,210.7l-0.3,1.3c-1.1,0.2-2,0.4-2.6,0.4c-0.7,0-1.7-0.1-3.3-0.2c-1.1-0.1-2.2-0.1-3.1-0.1c-1.6,0-3.2,0.1-4.8,0.4
			l0.3-1.3c1.6-0.2,2.7-0.5,3.4-1c0.5-0.4,1-1,1.3-1.8s1.2-3.9,2.5-9.1l3-12.4l0.2-0.6c-0.9,0-1.6-0.1-2.1-0.1
			c-2.9,0-5.2,0.3-6.9,0.9s-3,1.5-3.8,2.7s-1.3,2.5-1.3,3.9c0,0.5,0.1,0.9,0.3,1.3c0.1,0.3,0.5,0.7,1,1.4c0.5,0.6,0.8,1.1,0.8,1.6
			c0,0.4-0.2,0.8-0.5,1.1c-0.3,0.3-0.7,0.4-1.1,0.4c-0.7,0-1.2-0.3-1.6-0.9c-0.6-0.9-0.9-2.1-0.9-3.5c0-1.9,0.6-3.8,1.8-5.6
			s2.8-3.2,4.9-4.2s4.6-1.5,7.5-1.5c1.4,0,3.6,0.2,6.7,0.6c2.2,0.3,3.8,0.4,4.8,0.4s1.7-0.2,2.1-0.5s0.6-0.8,0.6-1.3
			c0-0.1,0-0.3-0.1-0.7c0-0.3-0.1-0.5-0.1-0.6c0-0.4,0.1-0.8,0.4-1.1s0.6-0.4,1-0.4c0.5,0,0.9,0.2,1.2,0.5s0.5,0.8,0.5,1.4
			c0,1.2-0.6,2.2-1.9,3.1c-1.3,0.9-3.4,1.3-6.3,1.3c-1.1,0-2.2,0-3.4-0.1c-0.2,0.6-0.7,2.5-1.5,5.7l-2,8.1l-1.2,4.9l-1.3,5.6
			c1,0.1,1.9,0.2,2.6,0.2C154.9,211.1,156,210.9,157.2,210.7z"/>
		<path d="M162.8,197.7l-1-0.8c1.6-1.7,3-2.9,4.3-3.7c1.3-0.7,2.4-1.1,3.3-1.1c0.5,0,0.9,0.1,1.1,0.3s0.4,0.5,0.4,0.9
			c0,0.5-0.5,2.4-1.5,5.8c-1.7,5.5-2.5,8.9-2.5,10c0,0.2,0.1,0.4,0.2,0.6s0.2,0.2,0.4,0.2c0.5,0,1.8-1,3.8-2.9l0.9,0.9
			c-2.1,2-3.7,3.3-4.7,3.9s-1.8,0.8-2.4,0.8c-0.5,0-1-0.2-1.3-0.5s-0.5-0.8-0.5-1.4c0-2,1.2-6.7,3.5-14.3c0.1-0.4,0.2-0.7,0.2-1
			c0-0.3-0.1-0.5-0.4-0.5c-0.3,0-0.7,0.1-1.1,0.4S164.1,196.4,162.8,197.7z M172,182.2c0.5,0,0.9,0.2,1.2,0.5s0.5,0.7,0.5,1.2
			c0,0.7-0.2,1.3-0.7,1.8s-1,0.8-1.6,0.8c-0.5,0-0.9-0.2-1.2-0.5s-0.5-0.8-0.5-1.3c0-0.7,0.2-1.3,0.7-1.8S171.4,182.2,172,182.2z"/>
		<path d="M174.2,197.7l-0.7-0.9c1.5-1.5,3-2.7,4.4-3.4c1.4-0.7,2.5-1.1,3.3-1.1c0.3,0,0.6,0.1,0.7,0.2s0.2,0.3,0.2,0.6
			c0,0.3-0.1,0.9-0.4,1.8c-0.4,1.3-0.6,2.4-0.8,3.1c3.7-3.8,6.6-5.7,8.6-5.7c0.5,0,0.9,0.1,1.2,0.4s0.4,0.7,0.4,1.3
			c0,0.7-0.2,1.8-0.7,3.4c1.8-1.9,3.3-3.2,4.6-3.9s2.3-1.2,3.1-1.2c0.7,0,1.2,0.2,1.5,0.6c0.4,0.4,0.5,1,0.5,1.7
			c0,0.5-0.1,1-0.2,1.7s-0.7,2.6-1.7,5.9c-1.2,4-1.9,6.5-1.9,7.2c0,0.5,0.2,0.8,0.7,0.8c0.3,0,0.6-0.1,0.9-0.3
			c0.9-0.7,1.9-1.5,2.8-2.4l0.8,0.8c-0.3,0.3-0.9,0.8-1.9,1.6c-1.3,1.1-2.1,1.8-2.6,2.1c-0.9,0.5-1.7,0.8-2.3,0.8
			c-0.5,0-0.9-0.2-1.2-0.7s-0.5-1.1-0.5-1.9c0-0.8,0.1-1.6,0.3-2.6s0.9-3.3,1.9-6.8c0.8-2.6,1.2-4.2,1.2-4.8c0-0.5-0.2-0.8-0.7-0.8
			c-0.4,0-0.9,0.2-1.6,0.6c-1.3,0.8-2.5,1.8-3.4,3c-0.6,0.8-1.2,2.1-1.6,3.9c-1,3.9-1.8,7-2.3,9.4h-3.3l3.5-14.3
			c0.3-1,0.4-1.6,0.4-1.8c0-0.3-0.1-0.4-0.2-0.6c-0.1-0.1-0.3-0.2-0.5-0.2c-0.4,0-1.1,0.3-2,1c-1.5,1.1-2.7,2.2-3.3,3.2
			s-1.3,2.6-1.7,4.7l-1.8,7.9h-3.4l2.6-11.2c0.8-3.2,1.2-5,1.2-5.3c0-0.4-0.1-0.5-0.4-0.5C177.3,195,176,195.9,174.2,197.7z"/>
		<path d="M215.6,206.1l0.8,1c-3.8,3.6-7.1,5.5-9.8,5.5c-1.1,0-2-0.4-2.5-1.1s-0.9-2-0.9-3.6c0-3.3,1-6.7,3-10
			c2.3-3.8,5-5.6,8.2-5.6c1.1,0,2,0.3,2.5,0.8s0.9,1.3,0.9,2.3c0,1-0.4,2-1.1,3s-2,2-3.8,3.1c-0.9,0.5-2.8,1.4-5.8,2.8
			c-0.1,0.8-0.2,1.6-0.2,2.4c0,1.1,0.2,1.9,0.5,2.3s0.9,0.7,1.5,0.7c0.6,0,1.3-0.2,2.1-0.5C212.1,208.6,213.6,207.6,215.6,206.1z
			 M207.4,202.7c2.5-1.1,4.4-2.3,5.7-3.6c0.9-0.9,1.3-1.8,1.3-2.7c0-0.7-0.2-1.2-0.5-1.6s-0.8-0.6-1.4-0.6c-0.6,0-1.1,0.2-1.7,0.7
			c-0.7,0.6-1.4,1.5-1.9,2.6C208.2,199.2,207.7,200.9,207.4,202.7z"/>
	</g>
</g>
</svg>
