<?xml version="1.0" encoding="utf-8"?>
<!-- Generator: Adobe Illustrator 22.0.1, SVG Export Plug-In . SVG Version: 6.00 Build 0)  -->
<svg version="1.1" id="圖層_1" xmlns="http://www.w3.org/2000/svg" xmlns:xlink="http://www.w3.org/1999/xlink" x="0px" y="0px"
	 viewBox="0 0 221.2 45.1" style="enable-background:new 0 0 221.2 45.1;" xml:space="preserve">
<style type="text/css">
	.st0{fill:#FFFFFF;}
</style>
<g>
	<path class="st0" d="M30.9,20h-1.3c0.1-1.2,0.1-2.2,0.1-2.9c0-2.2-0.5-3.7-1.4-4.6s-2.1-1.3-3.5-1.3c-1.9,0-3.8,0.8-5.8,2.3
		s-3.7,3.9-5.2,7.1s-2.2,6.5-2.2,9.9c0,3.3,0.7,5.8,2,7.5s3,2.6,5,2.6c2.7,0,5.2-1.6,7.5-4.9c0.2-0.3,0.5-0.5,0.7-0.5
		c0.2,0,0.4,0.1,0.5,0.2s0.2,0.3,0.2,0.5c0,0.4-0.5,1.3-1.6,2.5s-2.3,2.3-3.9,3.1s-3.1,1.2-4.7,1.2c-1.8,0-3.6-0.5-5.1-1.4
		s-2.8-2.3-3.7-4.1S7.6,33,7.6,30.6c0-3.4,0.9-6.8,2.7-10.2s4-6,6.7-7.9s5.3-2.8,7.9-2.8c0.9,0,1.8,0.1,2.7,0.3
		c0.4,0.1,2,0.6,4.8,1.6C31.5,14.3,31,17.1,30.9,20z"/>
	<path class="st0" d="M36.3,37.9h-3.5l1.6-6.3c0.8-3.1,1.5-6,2.1-8.8c0.1-0.7,0.2-1.1,0.2-1.3c0-0.4-0.2-0.6-0.5-0.6
		c-0.2,0-0.6,0.2-1.1,0.5s-1.4,1.1-2.6,2.4L31.8,23c1.5-1.6,3-2.8,4.5-3.6s2.6-1.2,3.4-1.2c0.3,0,0.5,0.1,0.7,0.2s0.2,0.3,0.2,0.5
		c0,0.2-0.1,0.7-0.3,1.6l-1,4.2c1.6-2.5,3.4-4.6,5.4-6.4c1-0.8,1.8-1.3,2.4-1.3c0.5,0,0.9,0.2,1.2,0.5c0.3,0.3,0.5,0.7,0.5,1.1
		c0,0.4-0.2,0.8-0.5,1.1s-1.1,0.6-2.3,1.1c-1.2,0.4-2.1,0.9-2.8,1.4c-0.7,0.5-1.5,1.4-2.4,2.5c-0.9,1.1-1.5,2.1-1.8,2.9
		s-0.9,2.8-1.6,5.8L36.3,37.9z"/>
	<path class="st0" d="M62.2,18.8h3.3L63.4,27c-1.3,4.8-1.9,7.5-1.9,8.1c0,0.3,0.1,0.5,0.2,0.7s0.3,0.2,0.5,0.2
		c0.3,0,0.6-0.1,0.9-0.4c0.5-0.4,1.5-1.3,2.9-2.7l0.8,0.9c-3.1,3.3-5.5,4.9-6.9,4.9c-0.5,0-0.9-0.2-1.3-0.6S58,37.2,58,36.5
		c0-0.8,0.2-1.9,0.5-3.3c-1.4,1.6-3.1,3-5.2,4.2c-1.4,0.8-2.5,1.2-3.5,1.2c-0.5,0-1-0.2-1.3-0.5c-0.3-0.4-0.5-0.9-0.5-1.7
		c0-0.6,0.1-1.3,0.2-2c0.2-1,0.7-3,1.5-5.9c1-3.8,1.6-6,1.6-6.8c0-0.4-0.2-0.7-0.5-0.7c-0.3,0-0.7,0.1-1.1,0.4s-1.3,1-2.5,2.1
		l-1-0.8c2.1-1.9,3.7-3.1,4.8-3.7s2-0.9,2.7-0.9c0.4,0,0.7,0.1,0.9,0.4c0.2,0.3,0.4,0.7,0.4,1.3c0,1.1-0.6,3.7-1.7,8
		c-1,3.8-1.5,6-1.5,6.5c0,0.3,0.1,0.6,0.3,0.8c0.2,0.2,0.4,0.4,0.7,0.4c0.9,0,2.1-0.7,3.7-2.2c1.6-1.4,2.7-3.1,3.2-4.9L62.2,18.8z"
		/>
	<path class="st0" d="M81.3,32.8l0.5,1.4c-3.7,2.9-6.9,4.4-9.4,4.4c-1.4,0-2.3-0.5-3-1.5s-0.9-2.2-0.9-3.7c0-2.5,0.7-5,2-7.6
		s2.9-4.6,4.8-6c1.5-1.1,3.1-1.6,5-1.6c1.2,0,2,0.2,2.6,0.7s0.9,1,0.9,1.6c0,0.5-0.2,0.9-0.5,1.2s-0.8,0.5-1.3,0.5
		c-0.5,0-1.3-0.3-2.1-0.8c-0.9-0.5-1.6-0.8-2.2-0.8c-0.8,0-1.5,0.3-2.3,1c-0.8,0.7-1.5,2-2.2,4s-1,4-1,6c0,1.5,0.3,2.6,0.9,3.4
		c0.4,0.6,1,0.9,1.8,0.9C76.6,36,78.8,34.9,81.3,32.8z"/>
	<path class="st0" d="M85.5,23.6l-1-0.8c1.6-1.7,3-2.9,4.3-3.7c1.3-0.7,2.4-1.1,3.3-1.1c0.5,0,0.9,0.1,1.1,0.3
		c0.3,0.2,0.4,0.5,0.4,0.9c0,0.5-0.5,2.4-1.5,5.8c-1.7,5.5-2.5,8.9-2.5,10c0,0.2,0.1,0.4,0.2,0.6s0.2,0.2,0.4,0.2
		c0.5,0,1.8-1,3.8-2.9l0.9,0.9c-2.1,2-3.7,3.3-4.7,3.9s-1.8,0.8-2.4,0.8c-0.5,0-1-0.2-1.3-0.5S86,37.2,86,36.6c0-2,1.2-6.7,3.5-14.3
		c0.1-0.4,0.2-0.7,0.2-1c0-0.3-0.1-0.5-0.4-0.5c-0.3,0-0.7,0.1-1.1,0.4S86.9,22.3,85.5,23.6z M94.8,8.1c0.5,0,0.9,0.2,1.2,0.5
		s0.5,0.7,0.5,1.2c0,0.7-0.2,1.3-0.7,1.8s-1,0.8-1.6,0.8c-0.5,0-0.9-0.2-1.2-0.5s-0.5-0.8-0.5-1.3c0-0.7,0.2-1.3,0.7-1.8
		S94.1,8.1,94.8,8.1z"/>
	<path class="st0" d="M112.3,17.8l1.5-0.3l-1.8,5.9c-0.7,2.4-1.4,5.1-2,8.2c-0.3,1.7-0.5,2.8-0.5,3.2s0.2,0.7,0.6,0.7
		c0.3,0,0.6-0.2,1.2-0.5c1-0.6,1.9-1.3,2.8-2.2l0.8,0.9c-1.8,1.6-2.9,2.6-3.4,3c-1,0.7-2,1.2-2.9,1.5c-0.6,0.2-1.2,0.3-1.7,0.3
		c-0.4,0-0.7-0.1-0.9-0.3s-0.3-0.5-0.3-0.8c0-0.2,0.1-0.6,0.2-1l0.9-3.2c-1.3,1.6-2.9,3-4.8,4.1c-1.1,0.7-2.2,1.1-3.1,1.1
		c-0.9,0-1.6-0.3-2.1-1c-0.7-0.9-1-2-1-3.4c0-1.7,0.4-3.5,1.3-5.5s2.1-3.9,3.6-5.5s3-2.9,4.7-3.7c1.3-0.6,2.9-0.9,4.9-0.9
		c0.5,0,1,0,1.5,0.1L112.3,17.8z M109.4,21.4c-0.8-0.2-1.6-0.3-2.1-0.3c-1.4,0-2.6,0.4-3.7,1.2s-2,2.2-2.9,4.2s-1.3,4-1.3,6
		c0,1.1,0.2,1.8,0.5,2.3s0.8,0.7,1.4,0.7c1.1,0,2.2-0.6,3.5-1.7s2.1-2.8,2.7-5L109.4,21.4z"/>
	<path class="st0" d="M126.2,32.2l0.8,0.8c-1.2,1.4-2.7,2.6-4.3,3.8s-3,1.7-4.1,1.7c-0.5,0-0.9-0.2-1.2-0.6s-0.5-0.9-0.5-1.5
		c0-1.3,0.5-3.8,1.5-7.8l2.5-10.3c0.9-3.7,1.7-6.2,2.3-7.5c1-1.9,2.3-3.4,4.1-4.5c1.8-1.1,3.6-1.6,5.6-1.6c0.7,0,1.2,0.2,1.6,0.5
		c0.4,0.3,0.6,0.7,0.6,1.2c0,0.5-0.2,0.9-0.6,1.2c-0.4,0.3-0.9,0.5-1.6,0.5c-0.5,0-1.1-0.1-2-0.2c-0.7-0.1-1.4-0.2-2.1-0.2
		c-0.6,0-1.1,0.1-1.4,0.4c-0.5,0.4-0.9,1.2-1.2,2.4c-0.4,1.2-1,3.6-1.8,7.1l-2.3,9.8c-1.2,4.9-1.7,7.5-1.7,7.7
		c0,0.5,0.2,0.8,0.5,0.8c0.3,0,0.8-0.2,1.5-0.6C123.6,34.5,124.9,33.5,126.2,32.2z"/>
	<path class="st0" d="M157.7,36.5l-0.3,1.3c-1.1,0.2-2,0.4-2.6,0.4c-0.7,0-1.7-0.1-3.3-0.2c-1.1-0.1-2.2-0.1-3.1-0.1
		c-1.6,0-3.2,0.1-4.8,0.4l0.3-1.3c1.6-0.2,2.7-0.5,3.4-1c0.5-0.4,1-1,1.3-1.8s1.2-3.9,2.5-9.1l3-12.4l0.2-0.6
		c-0.9,0-1.6-0.1-2.1-0.1c-2.9,0-5.2,0.3-6.9,0.9s-3,1.5-3.8,2.7s-1.3,2.5-1.3,3.9c0,0.5,0.1,0.9,0.3,1.3c0.1,0.3,0.5,0.7,1,1.4
		c0.5,0.6,0.8,1.1,0.8,1.6c0,0.4-0.2,0.8-0.5,1.1c-0.3,0.3-0.7,0.4-1.1,0.4c-0.7,0-1.2-0.3-1.6-0.9c-0.6-0.9-0.9-2.1-0.9-3.5
		c0-1.9,0.6-3.8,1.8-5.6s2.8-3.2,4.9-4.2s4.6-1.5,7.5-1.5c1.4,0,3.6,0.2,6.7,0.6c2.2,0.3,3.8,0.4,4.8,0.4s1.7-0.2,2.1-0.5
		s0.6-0.8,0.6-1.3c0-0.1,0-0.3-0.1-0.7c0-0.3-0.1-0.5-0.1-0.6c0-0.4,0.1-0.8,0.4-1.1s0.6-0.4,1-0.4c0.5,0,0.9,0.2,1.2,0.5
		s0.5,0.8,0.5,1.4c0,1.2-0.6,2.2-1.9,3.1c-1.3,0.9-3.4,1.3-6.3,1.3c-1.1,0-2.2,0-3.4-0.1c-0.2,0.6-0.7,2.5-1.5,5.7l-2,8.1l-1.2,4.9
		l-1.3,5.6c1,0.1,1.9,0.2,2.6,0.2C155.4,36.9,156.5,36.8,157.7,36.5z"/>
	<path class="st0" d="M163.3,23.6l-1-0.8c1.6-1.7,3-2.9,4.3-3.7c1.3-0.7,2.4-1.1,3.3-1.1c0.5,0,0.9,0.1,1.1,0.3
		c0.3,0.2,0.4,0.5,0.4,0.9c0,0.5-0.5,2.4-1.5,5.8c-1.7,5.5-2.5,8.9-2.5,10c0,0.2,0.1,0.4,0.2,0.6s0.2,0.2,0.4,0.2
		c0.5,0,1.8-1,3.8-2.9l0.9,0.9c-2.1,2-3.7,3.3-4.7,3.9s-1.8,0.8-2.4,0.8c-0.5,0-1-0.2-1.3-0.5s-0.5-0.8-0.5-1.4
		c0-2,1.2-6.7,3.5-14.3c0.1-0.4,0.2-0.7,0.2-1c0-0.3-0.1-0.5-0.4-0.5c-0.3,0-0.7,0.1-1.1,0.4S164.6,22.3,163.3,23.6z M172.5,8.1
		c0.5,0,0.9,0.2,1.2,0.5s0.5,0.7,0.5,1.2c0,0.7-0.2,1.3-0.7,1.8s-1,0.8-1.6,0.8c-0.5,0-0.9-0.2-1.2-0.5s-0.5-0.8-0.5-1.3
		c0-0.7,0.2-1.3,0.7-1.8S171.8,8.1,172.5,8.1z"/>
	<path class="st0" d="M174.6,23.6l-0.7-0.9c1.5-1.5,3-2.7,4.4-3.4c1.4-0.7,2.5-1.1,3.3-1.1c0.3,0,0.6,0.1,0.7,0.2s0.2,0.3,0.2,0.6
		c0,0.3-0.1,0.9-0.4,1.8c-0.4,1.3-0.6,2.4-0.8,3.1c3.7-3.8,6.6-5.7,8.6-5.7c0.5,0,0.9,0.1,1.2,0.4c0.3,0.3,0.4,0.7,0.4,1.3
		c0,0.7-0.2,1.8-0.7,3.4c1.8-1.9,3.3-3.2,4.6-3.9s2.3-1.2,3.1-1.2c0.7,0,1.2,0.2,1.5,0.6c0.4,0.4,0.5,1,0.5,1.7c0,0.5-0.1,1-0.2,1.7
		s-0.7,2.6-1.7,5.9c-1.2,4-1.9,6.5-1.9,7.2c0,0.5,0.2,0.8,0.7,0.8c0.3,0,0.6-0.1,0.9-0.3c0.9-0.7,1.9-1.5,2.8-2.4l0.8,0.8
		c-0.3,0.3-0.9,0.8-1.9,1.6c-1.3,1.1-2.1,1.8-2.6,2.1c-0.9,0.5-1.7,0.8-2.3,0.8c-0.5,0-0.9-0.2-1.2-0.7s-0.5-1.1-0.5-1.9
		c0-0.8,0.1-1.6,0.3-2.6s0.9-3.3,1.9-6.8c0.8-2.6,1.2-4.2,1.2-4.8c0-0.5-0.2-0.8-0.7-0.8c-0.4,0-0.9,0.2-1.6,0.6
		c-1.3,0.8-2.5,1.8-3.4,3c-0.6,0.8-1.2,2.1-1.6,3.9c-1,3.9-1.8,7-2.3,9.4H184l3.5-14.3c0.3-1,0.4-1.6,0.4-1.8c0-0.3-0.1-0.4-0.2-0.6
		s-0.3-0.2-0.5-0.2c-0.4,0-1.1,0.3-2,1c-1.5,1.1-2.7,2.2-3.3,3.2s-1.3,2.6-1.7,4.7l-1.8,7.9H175l2.6-11.2c0.8-3.2,1.2-5,1.2-5.3
		c0-0.4-0.1-0.5-0.4-0.5C177.8,20.9,176.5,21.8,174.6,23.6z"/>
	<path class="st0" d="M216.1,32l0.8,1c-3.8,3.6-7.1,5.5-9.8,5.5c-1.1,0-2-0.4-2.5-1.1s-0.9-2-0.9-3.6c0-3.3,1-6.7,3-10
		c2.3-3.8,5-5.6,8.2-5.6c1.1,0,2,0.3,2.5,0.8s0.9,1.3,0.9,2.3c0,1-0.4,2-1.1,3s-2,2-3.8,3.1c-0.9,0.5-2.8,1.4-5.8,2.8
		c-0.1,0.8-0.2,1.6-0.2,2.4c0,1.1,0.2,1.9,0.5,2.3s0.9,0.7,1.5,0.7c0.6,0,1.3-0.2,2.1-0.5C212.6,34.5,214.1,33.5,216.1,32z
		 M207.9,28.6c2.5-1.1,4.4-2.3,5.7-3.6c0.9-0.9,1.3-1.8,1.3-2.7c0-0.7-0.2-1.2-0.5-1.6s-0.8-0.6-1.4-0.6c-0.6,0-1.1,0.2-1.7,0.7
		c-0.7,0.6-1.4,1.5-1.9,2.6C208.7,25.1,208.2,26.8,207.9,28.6z"/>
</g>
</svg>
