<?xml version="1.0" encoding="utf-8"?>
<!-- Generator: Adobe Illustrator 22.0.1, SVG Export Plug-In . SVG Version: 6.00 Build 0)  -->
<svg version="1.1" id="圖層_1" xmlns="http://www.w3.org/2000/svg" xmlns:xlink="http://www.w3.org/1999/xlink" x="0px" y="0px"
	 viewBox="0 0 284.2 56.8" style="enable-background:new 0 0 284.2 56.8;" xml:space="preserve">
<style type="text/css">
	.st0{fill:#FFFFFF;}
</style>
<g>
	<path class="st0" d="M35.9,12.5h-1.2c0.1-0.8,0.2-1.4,0.2-1.9c0-0.6-0.3-1-0.8-1.2c-0.5-0.2-2.5-0.3-5.9-0.3l-3.4,0l-2.6,10.3H27
		c1.5,0,2.5-0.1,2.8-0.3s0.6-0.8,0.8-1.7h1.3c-0.5,1.9-0.9,4-1.3,6.2h-1.2c0.1-0.7,0.1-1.3,0.1-1.7c0-0.2-0.1-0.4-0.3-0.6
		c-0.1-0.1-0.3-0.2-0.6-0.3c-0.4-0.1-1.1-0.1-2-0.1h-4.8c-1.4,5.3-2.8,9.5-4.3,12.5c1.5-0.5,2.7-0.7,3.9-0.7c1.9,0,4.2,0.3,6.9,0.9
		c1.4,0.3,2.4,0.5,2.9,0.5c0.7,0,1.2-0.2,1.7-0.5c0.4-0.3,0.6-0.7,0.6-1.2c0-0.3-0.1-0.7-0.3-1.2c-0.1-0.4-0.2-0.8-0.2-1.1
		c0-0.4,0.1-0.7,0.4-1c0.3-0.3,0.6-0.4,1-0.4c0.5,0,0.9,0.2,1.2,0.6s0.5,0.9,0.5,1.5c0,1.3-0.6,2.5-1.7,3.5s-2.7,1.5-4.6,1.5
		c-1,0-2.3-0.1-3.8-0.3C22.6,35.2,20,35,18.2,35c-2.3,0-5,0.2-8.1,0.6l0.4-1.3c1.9-0.5,2.9-0.9,3.3-1.1s0.6-0.6,0.8-1.1
		c0.7-1.5,1.7-4.5,2.9-8.9c1.2-4.5,2.4-9.2,3.6-14.1c-1.9,0-3.7,0.4-5.3,1.3c-1.7,0.9-3,2-3.9,3.5s-1.4,2.9-1.4,4.5
		c0,0.7,0.1,1.3,0.2,1.8c0.1,0.5,0.4,1.2,0.9,2.1c0.3,0.5,0.4,1,0.4,1.3s-0.1,0.6-0.4,0.9c-0.3,0.3-0.6,0.4-1.1,0.4
		c-0.6,0-1.1-0.3-1.4-0.9c-0.5-0.9-0.8-2.1-0.8-3.6c0-3.3,1.2-6.2,3.7-8.8s6.1-3.9,10.9-3.9h8c2.8,0,4.8-0.2,6.2-0.5
		C36.5,9.6,36.1,11.4,35.9,12.5z"/>
	<path class="st0" d="M39.7,20.8L38.9,20c2-1.9,3.6-3.2,4.8-3.8s2.2-0.9,3-0.9c0.3,0,0.6,0.1,0.8,0.2s0.3,0.3,0.3,0.5
		c0,0.1,0,0.4-0.1,0.8l-1.1,4.7c1.6-1.8,3.6-3.4,6-5c1.3-0.8,2.3-1.2,3.2-1.2c0.6,0,1.1,0.2,1.4,0.6c0.3,0.4,0.5,1,0.5,1.7
		c0,0.5-0.1,1-0.2,1.6c-0.2,1-0.9,3.2-2,6.6c-1,3.2-1.5,5.3-1.5,6.4c0,0.3,0,0.6,0.1,0.7s0.2,0.2,0.4,0.2c0.5,0,1.2-0.4,2.1-1.3
		c0.7-0.6,1.4-1.2,2.1-1.7l0.6,0.8c-1.4,1.6-2.9,2.9-4.5,3.8c-1,0.6-1.8,0.9-2.4,0.9c-0.6,0-1.1-0.2-1.4-0.6s-0.5-1.1-0.5-2.1
		c0-1.4,0.9-4.9,2.6-10.4c0.5-2,0.8-3.1,0.8-3.4c0-0.5-0.3-0.7-0.9-0.7c-0.6,0-1.4,0.3-2.4,1c-1.5,1-2.7,2.1-3.7,3.4
		c-0.6,0.8-1.1,2.2-1.6,4L43.5,35h-3.5c0.7-2.3,1.2-4.6,1.7-6.7l2.1-8.9c0.1-0.4,0.1-0.6,0.1-0.8c0-0.4-0.2-0.6-0.5-0.6
		c-0.3,0-0.6,0.2-1.1,0.5C41.4,19.1,40.5,19.9,39.7,20.8z"/>
	<path class="st0" d="M62,20.9l-0.9-1c1.3-1.4,2.8-2.6,4.3-3.5c1.5-0.9,2.7-1.3,3.5-1.3c0.3,0,0.6,0.1,0.9,0.3
		c0.2,0.2,0.3,0.5,0.3,0.8c0,0.4-0.2,1.5-0.7,3.3l-4,14.8c-1.4,5-2.9,8.4-4.5,10.2s-3.6,2.7-5.8,2.7c-1.1,0-1.9-0.2-2.5-0.6
		s-0.9-0.9-0.9-1.4c0-0.4,0.1-0.7,0.4-1s0.6-0.4,1-0.4c0.4,0,1.1,0.2,1.9,0.6c0.9,0.5,1.7,0.7,2.2,0.7c0.8,0,1.5-0.4,2-1.2
		c0.5-0.8,1.3-3.2,2.3-7.4c1.1-4.3,2-7.7,2.7-10.4l1.6-5.9c0.3-1,0.5-1.5,0.5-1.8c0-0.1-0.1-0.2-0.2-0.3s-0.2-0.1-0.3-0.1
		C65.2,18.1,63.9,19,62,20.9z M71.3,5.2c0.5,0,0.9,0.2,1.2,0.5S73,6.4,73,6.9c0,0.7-0.2,1.3-0.7,1.8s-1,0.8-1.6,0.8
		c-0.5,0-0.9-0.2-1.2-0.5S69,8.3,69,7.7c0-0.7,0.2-1.3,0.7-1.8S70.7,5.2,71.3,5.2z"/>
	<path class="st0" d="M83.3,15.3c1.5,0,2.8,0.6,3.8,1.8s1.5,2.9,1.5,5.1c0,3.5-1.2,6.6-3.7,9.3s-5,4.1-7.7,4.1c-1.7,0-3-0.5-4-1.6
		s-1.5-2.6-1.5-4.5c0-3.3,0.9-6.3,2.8-9.1C76.8,17,79.8,15.3,83.3,15.3z M81.3,17c-1.3,0-2.6,0.9-3.9,2.8s-1.9,4.5-1.9,7.9
		c0,2,0.4,3.6,1.1,4.8c0.6,0.9,1.3,1.3,2.3,1.3c1.3,0,2.5-0.8,3.6-2.4c1.4-2.1,2.1-4.7,2.1-7.9c0-2.3-0.3-4-0.9-5S82.2,17,81.3,17z"
		/>
	<path class="st0" d="M90.8,20.1L90,19l1.7-1.2c1.7-1.2,2.9-1.9,3.6-2.2c0.4-0.2,0.8-0.3,1.1-0.3s0.6,0.2,0.9,0.6
		c1.4,1.7,2.5,4.1,3.5,7c0.9,2.9,1.4,5.8,1.4,8.6c0,0.4,0,0.9,0,1.6c2.6-4.9,4-8.7,4-11.6c0-0.6-0.1-1.4-0.4-2.4
		c-0.3-1.1-0.4-1.9-0.4-2.3c0-0.5,0.1-0.8,0.4-1.1s0.7-0.4,1.1-0.4c0.5,0,1,0.2,1.3,0.6s0.5,1,0.5,1.8c0,2-0.5,4.5-1.4,7.5
		s-2.4,6.2-4.3,9.7s-3.8,6-5.4,7.7s-3.2,2.9-4.7,3.6s-3,1.1-4.3,1.1c-1,0-1.8-0.2-2.3-0.6s-0.8-0.8-0.8-1.4c0-0.5,0.2-0.9,0.6-1.2
		s1-0.5,1.6-0.5c0.5,0,1.3,0.1,2.2,0.3c1,0.2,1.7,0.3,2,0.3c1,0,2-0.4,3-1.2c1.5-1.1,2.6-2.4,3.5-3.9c0.9-1.5,1.3-3,1.3-4.6
		c0-2.2-0.3-4.8-0.9-7.8c-0.6-3-1.5-5.4-2.7-7c-0.6-0.8-1.2-1.2-1.9-1.2C93.3,18.5,92.2,19,90.8,20.1z"/>
	<path class="st0" d="M120.5,20.1l-0.8-1.1l1.7-1.2c1.7-1.2,2.9-1.9,3.6-2.2c0.4-0.2,0.8-0.3,1.1-0.3s0.6,0.2,0.9,0.6
		c1.4,1.7,2.5,4.1,3.5,7c0.9,2.9,1.4,5.8,1.4,8.6c0,0.4,0,0.9,0,1.6c2.6-4.9,4-8.7,4-11.6c0-0.6-0.1-1.4-0.4-2.4
		c-0.3-1.1-0.4-1.9-0.4-2.3c0-0.5,0.1-0.8,0.4-1.1s0.7-0.4,1.1-0.4c0.5,0,1,0.2,1.3,0.6s0.5,1,0.5,1.8c0,2-0.5,4.5-1.4,7.5
		s-2.4,6.2-4.3,9.7s-3.8,6-5.4,7.7s-3.2,2.9-4.7,3.6s-3,1.1-4.3,1.1c-1,0-1.8-0.2-2.3-0.6s-0.8-0.8-0.8-1.4c0-0.5,0.2-0.9,0.6-1.2
		s1-0.5,1.6-0.5c0.5,0,1.3,0.1,2.2,0.3c1,0.2,1.7,0.3,2,0.3c1,0,2-0.4,3-1.2c1.5-1.1,2.6-2.4,3.5-3.9c0.9-1.5,1.3-3,1.3-4.6
		c0-2.2-0.3-4.8-0.9-7.8c-0.6-3-1.5-5.4-2.7-7c-0.6-0.8-1.2-1.2-1.9-1.2C123,18.5,121.9,19,120.5,20.1z"/>
	<path class="st0" d="M151.4,15.3c1.5,0,2.8,0.6,3.8,1.8s1.5,2.9,1.5,5.1c0,3.5-1.2,6.6-3.7,9.3s-5,4.1-7.7,4.1c-1.7,0-3-0.5-4-1.6
		s-1.5-2.6-1.5-4.5c0-3.3,0.9-6.3,2.8-9.1C144.9,17,147.9,15.3,151.4,15.3z M149.4,17c-1.3,0-2.6,0.9-3.9,2.8s-1.9,4.5-1.9,7.9
		c0,2,0.4,3.6,1.1,4.8c0.6,0.9,1.3,1.3,2.3,1.3c1.3,0,2.5-0.8,3.6-2.4c1.4-2.1,2.1-4.7,2.1-7.9c0-2.3-0.3-4-0.9-5S150.4,17,149.4,17
		z"/>
	<path class="st0" d="M174.8,15.9h3.3l-2.2,8.2c-1.3,4.8-1.9,7.5-1.9,8.1c0,0.3,0.1,0.5,0.2,0.7s0.3,0.2,0.5,0.2
		c0.3,0,0.6-0.1,0.9-0.4c0.5-0.4,1.5-1.3,2.9-2.7l0.8,0.9c-3.1,3.3-5.5,4.9-6.9,4.9c-0.5,0-0.9-0.2-1.3-0.6s-0.5-0.9-0.5-1.6
		c0-0.8,0.2-1.9,0.5-3.3c-1.4,1.6-3.1,3-5.2,4.2c-1.4,0.8-2.5,1.2-3.5,1.2c-0.5,0-1-0.2-1.3-0.5c-0.3-0.4-0.5-0.9-0.5-1.7
		c0-0.6,0.1-1.3,0.2-2c0.2-1,0.7-3,1.5-5.9c1-3.8,1.6-6,1.6-6.8c0-0.4-0.2-0.7-0.5-0.7c-0.3,0-0.7,0.1-1.1,0.4s-1.3,1-2.5,2.1
		l-1-0.8c2.1-1.9,3.7-3.1,4.8-3.7s2-0.9,2.7-0.9c0.4,0,0.7,0.1,0.9,0.4c0.2,0.3,0.4,0.7,0.4,1.3c0,1.1-0.6,3.7-1.7,8
		c-1,3.8-1.5,6-1.5,6.5c0,0.3,0.1,0.6,0.3,0.8c0.2,0.2,0.4,0.4,0.7,0.4c0.9,0,2.1-0.7,3.7-2.2s2.7-3.1,3.2-4.9L174.8,15.9z"/>
	<path class="st0" d="M185.4,35h-3.5l1.6-6.3c0.8-3.1,1.5-6,2.1-8.8c0.1-0.7,0.2-1.1,0.2-1.3c0-0.4-0.2-0.6-0.5-0.6
		c-0.2,0-0.6,0.2-1.1,0.5s-1.4,1.1-2.6,2.4l-0.7-0.8c1.5-1.6,3-2.8,4.5-3.6c1.5-0.8,2.6-1.2,3.4-1.2c0.3,0,0.5,0.1,0.7,0.2
		s0.2,0.3,0.2,0.5c0,0.2-0.1,0.7-0.3,1.6l-1,4.2c1.6-2.5,3.4-4.6,5.4-6.4c1-0.8,1.8-1.3,2.4-1.3c0.5,0,0.9,0.2,1.2,0.5
		c0.3,0.3,0.5,0.7,0.5,1.1c0,0.4-0.2,0.8-0.5,1.1c-0.3,0.3-1.1,0.6-2.3,1.1c-1.2,0.4-2.1,0.9-2.8,1.4c-0.7,0.5-1.5,1.4-2.4,2.5
		c-0.9,1.1-1.5,2.1-1.8,2.9s-0.9,2.8-1.6,5.8L185.4,35z"/>
	<path class="st0" d="M212.6,11.7l3.7-1.4l-1.7,6.6h4.9l-0.4,1.7h-4.9l-2,7.9c-0.6,2.4-1,4-1,4.9c0,0.4,0.1,0.7,0.3,0.9
		s0.4,0.3,0.7,0.3c0.5,0,1.2-0.3,2.2-0.9c1.3-0.8,2.6-1.6,3.8-2.6l0.9,1.1c-3.4,2.6-5.7,4.2-6.9,4.7s-2.1,0.9-2.8,0.9
		c-0.6,0-1-0.2-1.4-0.6s-0.5-1.1-0.5-2.1c0-1.1,0.3-2.8,0.9-5.2l2.4-9.3H207l0.4-1.7h3.8L212.6,11.7z"/>
	<path class="st0" d="M222.1,20.7l-1-0.8c1.6-1.7,3-2.9,4.3-3.7c1.3-0.7,2.4-1.1,3.3-1.1c0.5,0,0.9,0.1,1.1,0.3s0.4,0.5,0.4,0.9
		c0,0.5-0.5,2.4-1.5,5.8c-1.7,5.5-2.5,8.9-2.5,10c0,0.2,0.1,0.4,0.2,0.6s0.2,0.2,0.4,0.2c0.5,0,1.8-1,3.8-2.9l0.9,0.9
		c-2.1,2-3.7,3.3-4.7,3.9s-1.8,0.8-2.4,0.8c-0.5,0-1-0.2-1.3-0.5s-0.5-0.8-0.5-1.4c0-2,1.2-6.7,3.5-14.3c0.1-0.4,0.2-0.7,0.2-1
		c0-0.3-0.1-0.5-0.4-0.5c-0.3,0-0.7,0.1-1.1,0.4S223.5,19.4,222.1,20.7z M231.3,5.2c0.5,0,0.9,0.2,1.2,0.5s0.5,0.7,0.5,1.2
		c0,0.7-0.2,1.3-0.7,1.8s-1,0.8-1.6,0.8c-0.5,0-0.9-0.2-1.2-0.5S229,8.3,229,7.7c0-0.7,0.2-1.3,0.7-1.8S230.7,5.2,231.3,5.2z"/>
	<path class="st0" d="M233.5,20.7l-0.7-0.9c1.5-1.5,3-2.7,4.4-3.4s2.5-1.1,3.3-1.1c0.3,0,0.6,0.1,0.7,0.2s0.2,0.3,0.2,0.6
		c0,0.3-0.1,0.9-0.4,1.8c-0.4,1.3-0.6,2.4-0.8,3.1c3.7-3.8,6.6-5.7,8.6-5.7c0.5,0,0.9,0.1,1.2,0.4c0.3,0.3,0.4,0.7,0.4,1.3
		c0,0.7-0.2,1.8-0.7,3.4c1.8-1.9,3.3-3.2,4.6-3.9s2.3-1.2,3.1-1.2c0.7,0,1.2,0.2,1.5,0.6c0.4,0.4,0.5,1,0.5,1.7c0,0.5-0.1,1-0.2,1.7
		s-0.7,2.6-1.7,5.9c-1.2,4-1.9,6.5-1.9,7.2c0,0.5,0.2,0.8,0.7,0.8c0.3,0,0.6-0.1,0.9-0.3c0.9-0.7,1.9-1.5,2.8-2.4l0.8,0.8
		c-0.3,0.3-0.9,0.8-1.9,1.6c-1.3,1.1-2.1,1.8-2.6,2.1c-0.9,0.5-1.7,0.8-2.3,0.8c-0.5,0-0.9-0.2-1.2-0.7s-0.5-1.1-0.5-1.9
		c0-0.8,0.1-1.6,0.3-2.6s0.9-3.3,1.9-6.8c0.8-2.6,1.2-4.2,1.2-4.8c0-0.5-0.2-0.8-0.7-0.8c-0.4,0-0.9,0.2-1.6,0.6
		c-1.3,0.8-2.5,1.8-3.4,3c-0.6,0.8-1.2,2.1-1.6,3.9c-1,3.9-1.8,7-2.3,9.4h-3.3l3.5-14.3c0.3-1,0.4-1.6,0.4-1.8
		c0-0.3-0.1-0.4-0.2-0.6c-0.1-0.1-0.3-0.2-0.5-0.2c-0.4,0-1.1,0.3-2,1c-1.5,1.1-2.7,2.2-3.3,3.2s-1.3,2.6-1.7,4.7l-1.8,7.9h-3.4
		l2.6-11.2c0.8-3.2,1.2-5,1.2-5.3c0-0.4-0.1-0.5-0.4-0.5C236.6,18,235.4,18.9,233.5,20.7z"/>
	<path class="st0" d="M274.9,29.1l0.8,1c-3.8,3.6-7.1,5.5-9.8,5.5c-1.1,0-2-0.4-2.5-1.1s-0.9-2-0.9-3.6c0-3.3,1-6.7,3-10
		c2.3-3.8,5-5.6,8.2-5.6c1.1,0,2,0.3,2.5,0.8s0.9,1.3,0.9,2.3c0,1-0.4,2-1.1,3s-2,2-3.8,3.1c-0.9,0.5-2.8,1.4-5.8,2.8
		c-0.1,0.8-0.2,1.6-0.2,2.4c0,1.1,0.2,1.9,0.5,2.3s0.9,0.7,1.5,0.7c0.6,0,1.3-0.2,2.1-0.5C271.4,31.6,272.9,30.6,274.9,29.1z
		 M266.7,25.7c2.5-1.1,4.4-2.3,5.7-3.6c0.9-0.9,1.3-1.8,1.3-2.7c0-0.7-0.2-1.2-0.5-1.6s-0.8-0.6-1.4-0.6c-0.6,0-1.1,0.2-1.7,0.7
		c-0.7,0.6-1.4,1.5-1.9,2.6C267.5,22.2,267,23.9,266.7,25.7z"/>
</g>
</svg>
