<?xml version="1.0" encoding="utf-8"?>
<!-- Generator: Adobe Illustrator 22.0.1, SVG Export Plug-In . SVG Version: 6.00 Build 0)  -->
<svg version="1.1" id="圖層_1" xmlns="http://www.w3.org/2000/svg" xmlns:xlink="http://www.w3.org/1999/xlink" x="0px" y="0px"
	 viewBox="0 0 182.5 171.1" style="enable-background:new 0 0 182.5 171.1;" xml:space="preserve">
<style type="text/css">
	.st0{fill:#FFFFFF;}
</style>
<g>
	<g>
		<path class="st0" d="M94.8,44.5H90c0.3-4.6,0.4-8.2,0.4-11c0-8.3-1.7-14-5.1-17.3s-7.8-4.9-13-4.9c-7,0-14.2,2.8-21.7,8.5
			c-7.5,5.7-13.9,14.5-19.3,26.5c-5.4,12-8.1,24.3-8.1,37c0,12.2,2.5,21.6,7.5,28.2s11.3,9.8,18.9,9.8c10.3,0,19.7-6.2,28.2-18.5
			c0.9-1.2,1.8-1.8,2.7-1.8c0.8,0,1.4,0.3,1.9,0.7c0.5,0.5,0.8,1.1,0.8,1.7c0,1.6-1.9,4.7-5.8,9.3c-3.9,4.6-8.8,8.5-14.7,11.6
			c-5.9,3.1-11.7,4.6-17.5,4.6c-6.9,0-13.3-1.8-19.2-5.4c-5.9-3.6-10.5-8.7-13.8-15.4c-3.3-6.7-4.9-14.6-4.9-23.8
			c0-12.8,3.4-25.6,10.1-38.3C24,33.2,32.4,23.4,42.5,16.5C52.5,9.6,62.4,6.1,72,6.1c3.5,0,6.9,0.4,10.3,1.1
			c1.5,0.4,7.5,2.4,18.1,6.1C97.1,23.4,95.2,33.8,94.8,44.5z"/>
	</g>
	<g>
		<path class="st0" d="M130.9,157.2l-1.2,5c-4,0.9-7.4,1.3-9.9,1.3c-2.5,0-6.5-0.3-12.2-0.8c-4.3-0.4-8.1-0.5-11.5-0.5
			c-5.9,0-11.9,0.5-18.1,1.6l1.2-4.8c5.9-0.6,10.2-1.8,12.9-3.7c1.9-1.3,3.6-3.6,5-6.9c1.4-3.3,4.5-14.6,9.4-34.1l11.3-46.6l0.6-2.2
			c-3.5-0.2-6.1-0.3-7.8-0.3c-10.8,0-19.4,1.2-25.8,3.5c-6.4,2.3-11.1,5.8-14.3,10.2c-3.2,4.5-4.8,9.3-4.8,14.4c0,1.8,0.3,3.5,1,5
			c0.5,1.1,1.8,2.8,3.9,5.1c2,2.2,3,4.2,3,6c0,1.6-0.6,2.9-1.8,4c-1.2,1.1-2.6,1.7-4.2,1.7c-2.5,0-4.5-1.2-6-3.5
			c-2.2-3.5-3.3-7.9-3.3-13.2c0-7.1,2.2-14.1,6.6-20.8c4.4-6.7,10.5-12,18.2-15.6s17.1-5.5,28.2-5.5c5.3,0,13.7,0.8,25.2,2.3
			c8.2,1.1,14.2,1.6,17.8,1.6s6.3-0.6,7.8-1.8c1.5-1.2,2.3-2.9,2.3-4.9c0-0.4-0.1-1.2-0.3-2.5c-0.2-1.1-0.3-1.8-0.3-2.2
			c0-1.6,0.5-2.9,1.6-4s2.3-1.6,3.8-1.6c1.8,0,3.2,0.6,4.4,1.9c1.1,1.3,1.7,3,1.7,5.2c0,4.5-2.4,8.3-7.1,11.5
			c-4.7,3.2-12.7,4.8-23.8,4.8c-4,0-8.2-0.2-12.7-0.5c-0.6,2.1-2.4,9.3-5.5,21.4l-7.7,30.4l-4.7,18.5l-4.8,21.2
			c3.9,0.5,7.2,0.7,9.8,0.7C122.5,158.7,126.6,158.2,130.9,157.2z"/>
	</g>
</g>
</svg>
