<?xml version="1.0" encoding="utf-8"?>
<!-- Generator: Adobe Illustrator 22.0.1, SVG Export Plug-In . SVG Version: 6.00 Build 0)  -->
<svg version="1.1" id="圖層_1" xmlns="http://www.w3.org/2000/svg" xmlns:xlink="http://www.w3.org/1999/xlink" x="0px" y="0px"
	 viewBox="0 0 95.7 44.5" style="enable-background:new 0 0 95.7 44.5;" xml:space="preserve">
<style type="text/css">
	.st0{fill:#FFFFFF;}
</style>
<g>
	<path class="st0" d="M24.7,4.8l0.7,2.7c0.6,2.5,1.2,4.7,1.8,6.6s2.1,6.2,4.6,13c0.2-0.9,0.7-2.8,1.4-5.7c0.9-3.8,1.5-6.3,1.8-7.2
		c0.9-2.9,1.7-5,2.5-6.4s1.7-2.3,2.7-2.9s2.1-0.9,3.4-0.9c1,0,1.8,0.2,2.3,0.6s0.8,0.9,0.8,1.4c0,0.4-0.1,0.7-0.4,1s-0.6,0.4-1,0.4
		c-0.3,0-0.6-0.1-1-0.2c-0.8-0.3-1.3-0.5-1.4-0.5c-0.3-0.1-0.6-0.1-0.9-0.1c-0.8,0-1.4,0.3-2,0.8c-1,0.9-2,3.2-3.2,6.8
		c-1.2,3.6-2.6,9.5-4.4,17.5l-0.8,3.5c-1.8-3.9-3-6.7-3.6-8.3c-0.8-2.2-1.8-5-2.9-8.3l-2.6-8.1c-0.3,1.9-1,5-2.2,9.5s-1.8,7-2.1,7.7
		c-0.7,2.1-1.5,3.7-2.3,4.9s-1.7,1.9-2.7,2.5s-2.1,0.8-3.2,0.8c-1.5,0-2.7-0.3-3.6-1c-0.7-0.5-1.1-1.1-1.1-1.9
		c0-0.3,0.1-0.6,0.4-0.9s0.6-0.4,1-0.4c0.5,0,1,0.3,1.6,0.8c1,0.9,1.9,1.4,2.7,1.4c0.9,0,1.8-0.4,2.6-1.2c1.3-1.2,2.5-3.8,3.7-7.7
		c1.4-4.7,2.8-10.7,4.1-17.9c-0.5,0-1.6,0.2-3.1,0.5S15.5,8,14.5,8.6s-1.8,1.3-2.4,2.2s-0.8,1.9-0.8,2.9c0,0.5,0.1,1,0.2,1.5
		c0.1,0.3,0.3,0.8,0.6,1.3c0.4,0.6,0.5,1,0.5,1.3c0,0.4-0.1,0.7-0.4,1s-0.6,0.4-1,0.4c-0.6,0-1.1-0.3-1.5-0.9s-0.6-1.6-0.6-2.8
		c0-2.1,0.5-3.9,1.6-5.3s2.5-2.6,4.2-3.3c1.1-0.5,3.3-0.9,6.5-1.4C22.6,5.2,23.7,5,24.7,4.8z"/>
	<path class="st0" d="M53.3,27.1l0.8,1c-3.8,3.6-7.1,5.5-9.8,5.5c-1.1,0-2-0.4-2.5-1.1s-0.9-2-0.9-3.6c0-3.3,1-6.7,3-10
		c2.3-3.8,5-5.6,8.2-5.6c1.1,0,2,0.3,2.5,0.8s0.9,1.3,0.9,2.3c0,1-0.4,2-1.1,3s-2,2-3.8,3.1c-0.9,0.5-2.8,1.4-5.8,2.8
		c-0.1,0.8-0.2,1.6-0.2,2.4c0,1.1,0.2,1.9,0.5,2.3s0.9,0.7,1.5,0.7c0.6,0,1.3-0.2,2.1-0.5C49.8,29.6,51.3,28.6,53.3,27.1z
		 M45.1,23.7c2.5-1.1,4.4-2.3,5.7-3.6c0.9-0.9,1.3-1.8,1.3-2.7c0-0.7-0.2-1.2-0.5-1.6s-0.8-0.6-1.4-0.6c-0.6,0-1.1,0.2-1.7,0.7
		c-0.7,0.6-1.4,1.5-1.9,2.6C45.9,20.2,45.3,21.9,45.1,23.7z"/>
	<path class="st0" d="M59.5,18l-0.7-0.9c1.7-1.4,3.1-2.4,4.3-3.1c0.8-0.5,1.4-0.7,1.9-0.7c0.6,0,1.1,0.3,1.4,0.9
		c0.5,0.8,1,2.7,1.5,5.5c1.9-2.8,3.6-4.8,5.1-5.9s2.7-1.6,3.7-1.6c0.5,0,0.9,0.1,1.2,0.4c0.3,0.3,0.5,0.7,0.5,1.1
		c0,0.5-0.2,0.9-0.7,1.2c-0.3,0.2-1.2,0.4-2.6,0.5c-1.1,0.1-2.1,0.4-3,1.1c-1.4,1.1-2.7,2.8-4,5l1.5,7c0.6,3.1,1.3,5.4,2,6.8
		s1.6,2.6,2.6,3.4c0.6,0.5,1.2,0.7,1.9,0.7c1,0,1.7-0.6,2.2-1.8c0.3-0.8,0.8-1.2,1.4-1.2c0.3,0,0.6,0.1,0.8,0.4s0.4,0.6,0.4,1
		c0,0.8-0.4,1.5-1.3,2.1s-2,1-3.3,1c-1.5,0-2.9-0.5-4.3-1.4s-2.5-2.5-3.5-4.5s-1.9-5.4-2.8-9.9c-0.3,0.4-0.8,1.1-1.5,2.1
		c-2,2.8-3.5,4.6-4.6,5.4s-2.1,1.2-3.1,1.2c-0.7,0-1.3-0.2-1.7-0.6s-0.7-0.8-0.7-1.4c0-0.4,0.1-0.8,0.4-1.1s0.6-0.5,1-0.5
		c0.4,0,0.8,0.3,1.2,0.8c0.4,0.5,0.7,0.7,1,0.7c0.2,0,0.5-0.1,0.7-0.2c0.4-0.2,0.9-0.7,1.6-1.4c0.9-1,1.7-1.9,2.2-2.6l2.9-4.3
		l-1-4.4c-0.3-1.2-0.5-1.9-0.8-2.3s-0.5-0.5-0.9-0.5c-0.2,0-0.6,0.1-1,0.4C61,16.8,60.2,17.4,59.5,18z"/>
	<path class="st0" d="M84,9.7l3.7-1.4L86,14.8h4.9l-0.4,1.7h-4.9l-2,7.9c-0.6,2.4-1,4-1,4.9c0,0.4,0.1,0.7,0.3,0.9s0.4,0.3,0.7,0.3
		c0.5,0,1.2-0.3,2.2-0.9c1.3-0.8,2.6-1.6,3.8-2.6l0.9,1.1c-3.4,2.6-5.7,4.2-6.9,4.7s-2.1,0.9-2.8,0.9c-0.6,0-1-0.2-1.4-0.6
		S79,31.9,79,31c0-1.1,0.3-2.8,0.9-5.2l2.4-9.3h-3.8l0.4-1.7h3.8L84,9.7z"/>
</g>
</svg>
