<svg xmlns="http://www.w3.org/2000/svg" viewBox="0 0 32.35 28.91"><defs><style>.cls-1{fill:#fff;}</style></defs><title>資產 5hdpi</title><g id="圖層_2" data-name="圖層 2"><g id="圖層_19" data-name="圖層 19"><path class="cls-1" d="M10.38,18.15c-.55,2.92.46,3.9,3.16,3.77,4-.19,8,.08,12-.09,2.71-.11,4,1.17,4.06,3.62a3.13,3.13,0,0,1-3.36,3.46c-2.53-.05-3.71-1.67-3.46-4.24a5.89,5.89,0,0,0-.08-1H15.28c-.05.8.22,1.95-.22,2.41-1.05,1.11-2.54,2.74-3.67,2.6S8.28,26.4,8.46,25.45c1.14-6-1.57-11.38-2-17.09,0-.49-.27-1-.31-1.47C5.83,3.72,5.28.86.92,1.78.69,1.83.35,1.39,0,1.14,3.49-1,6.21-.08,7.52,3.8H29.08c3.57,0,3.62.07,2.91,3.56-.56,2.75-1.26,5.47-1.68,8.24-.3,2-1.23,2.64-3.2,2.59-4.61-.12-9.22,0-13.84,0ZM7.61,5.67l2,10.64H28.43L30.63,5.67Zm6.51,19.86c-1-.85-1.65-1.79-2.25-1.77s-1.26.94-1.88,1.46c.59.67,1.07,1.63,1.8,1.89C12.22,27.26,13.05,26.29,14.12,25.52Zm12,2.39c.85-1.06,1.75-1.69,1.74-2.31s-.88-1.3-1.37-1.95c-.66.58-1.66,1.06-1.88,1.78C24.41,25.93,25.32,26.75,26.07,27.91Z"/></g></g></svg>