<?xml version="1.0" encoding="utf-8"?>
<!-- Generator: Adobe Illustrator 22.0.1, SVG Export Plug-In . SVG Version: 6.00 Build 0)  -->
<svg version="1.1" id="圖層_1" xmlns="http://www.w3.org/2000/svg" xmlns:xlink="http://www.w3.org/1999/xlink" x="0px" y="0px"
	 viewBox="0 0 1580 1080" style="enable-background:new 0 0 1580 1080;" xml:space="preserve">
<style type="text/css">
	.st0{fill-rule:evenodd;clip-rule:evenodd;fill:#FFFFFF;}
</style>
<g>
	<path class="st0" d="M798.9,523l-5.3,0c0,0-0.1,0-0.3,0c-1.1,0-6.5,0.3-8,6.1c0,0.1-0.5,1.5-0.5,4.9h-5c-0.4,0-0.8,0.4-0.8,0.8v4.6
		c0,0.4,0.4,0.8,0.8,0.8h5.4v16.5c0,0.4,0.4,0.8,0.8,0.8h6.2c0.4,0,0.8-0.4,0.8-0.8v-16.5h5.5c0.4,0,0.8-0.4,0.8-0.8v-4.6
		c0-0.4-0.4-0.8-0.8-0.8h-5.5v-2c0-1.3,0.8-2.7,3.2-2.7h2.6c0.4,0,0.8-0.4,0.8-0.8v-4.8C799.7,523.4,799.3,523,798.9,523L798.9,523z
		 M798.1,527.8h-1.8c-3.3,0-4.8,2.2-4.8,4.3v2.8c0,0.4,0.4,0.8,0.8,0.8h5.5v3h-5.5c-0.4,0-0.8,0.4-0.8,0.8v16.5h-4.6v-16.5
		c0-0.4-0.4-0.8-0.8-0.8h-5.4v-3h5c0.2,0,0.4-0.1,0.6-0.2c0.1-0.2,0.2-0.4,0.2-0.6c-0.1-3.6,0.4-5.2,0.4-5.2c1.2-4.6,5.3-5,6.5-5
		c0.1,0,0.2,0,0.2,0h4.5V527.8z M798.1,527.8"/>
</g>
</svg>
