<svg xmlns="http://www.w3.org/2000/svg" viewBox="0 0 35.93 35.93"><defs><style>.cls-1{fill:#fff;}</style></defs><title>資產 13hdpi</title><g id="圖層_2" data-name="圖層 2"><g id="桌機"><g id="icon"><path class="cls-1" d="M32.93,0H3A3,3,0,0,0,0,3V32.93a3,3,0,0,0,3,3H32.93a3,3,0,0,0,3-3V3A3,3,0,0,0,32.93,0ZM18,34.73v-12H13.17V18H18V13.77a6.63,6.63,0,0,1,6-6.59h5.39V12H24.55a1.76,1.76,0,0,0-1.8,1.8V18h6v4.79h-6v12H18Zm16.77-1.8a1.76,1.76,0,0,1-1.8,1.8H24V24h6V16.77H24v-3a.57.57,0,0,1,.6-.6h6V6H23.89a7.86,7.86,0,0,0-7.13,7.78v3H12V24h4.79V34.73H3a1.76,1.76,0,0,1-1.8-1.8V3A1.76,1.76,0,0,1,3,1.2H32.93A1.76,1.76,0,0,1,34.73,3V32.93Z"/></g></g></g></svg>