<svg xmlns="http://www.w3.org/2000/svg" viewBox="0 0 26.86 23.73"><defs><style>.cls-1{fill:#fff;}</style></defs><title>資產 6hdpi</title><g id="圖層_2" data-name="圖層 2"><g id="圖層_19" data-name="圖層 19"><path class="cls-1" d="M24.9,2.33a6.76,6.76,0,0,0-10.8.78,10.3,10.3,0,0,0-.67,1.08,10.29,10.29,0,0,0-.67-1.08A6.76,6.76,0,0,0,2,2.33,8.14,8.14,0,0,0,0,7.74a10,10,0,0,0,2.75,6.54A61.13,61.13,0,0,0,9.62,20.7c1,.89,2.11,1.8,3.26,2.8l0,0a.79.79,0,0,0,1,0l0,0c1.14-1,2.22-1.92,3.26-2.8a61.12,61.12,0,0,0,6.87-6.42,10,10,0,0,0,2.75-6.54A8.14,8.14,0,0,0,24.9,2.33ZM16.22,19.5c-.9.76-1.82,1.55-2.79,2.39-1-.85-1.89-1.63-2.79-2.39C5.18,14.85,1.57,11.78,1.57,7.74A6.57,6.57,0,0,1,3.14,3.37a5.25,5.25,0,0,1,4-1.8A5.3,5.3,0,0,1,11.48,4a9.33,9.33,0,0,1,1.2,2.4.79.79,0,0,0,1.5,0A9.33,9.33,0,0,1,15.38,4a5.19,5.19,0,0,1,8.34-.65,6.57,6.57,0,0,1,1.57,4.37C25.28,11.78,21.68,14.85,16.22,19.5Z"/></g></g></svg>