<svg xmlns="http://www.w3.org/2000/svg" viewBox="0 0 35.93 35.93"><defs><style>.cls-1{fill:#fff;}</style></defs><title>資產 14hdpi</title><g id="圖層_2" data-name="圖層 2"><g id="桌機"><g id="icon"><path class="cls-1" d="M25.69,0H10.24A10.27,10.27,0,0,0,0,10.24V25.69A10.27,10.27,0,0,0,10.24,35.93H25.69A10.27,10.27,0,0,0,35.93,25.69V10.24A10.27,10.27,0,0,0,25.69,0Zm9,25.69a9.07,9.07,0,0,1-9,9H10.24a9.07,9.07,0,0,1-9-9V10.24a9.07,9.07,0,0,1,9-9H25.69a9.07,9.07,0,0,1,9,9Z"/><path class="cls-1" d="M25.69,3.59H10.24a6.67,6.67,0,0,0-6.65,6.65V25.69a6.67,6.67,0,0,0,6.65,6.65H25.69a6.67,6.67,0,0,0,6.65-6.65V10.24A6.67,6.67,0,0,0,25.69,3.59Zm5.45,22.1a5.47,5.47,0,0,1-5.45,5.45H10.24a5.47,5.47,0,0,1-5.45-5.45V10.24a5.47,5.47,0,0,1,5.45-5.45H25.69a5.47,5.47,0,0,1,5.45,5.45V25.69Z"/><path class="cls-1" d="M18,8.38A9.58,9.58,0,1,0,27.54,18,9.61,9.61,0,0,0,18,8.38Zm0,18A8.38,8.38,0,1,1,26.35,18,8.41,8.41,0,0,1,18,26.35Z"/><path class="cls-1" d="M18,11.38A6.59,6.59,0,1,0,24.55,18,6.57,6.57,0,0,0,18,11.38Zm0,12A5.39,5.39,0,1,1,23.35,18,5.37,5.37,0,0,1,18,23.35Z"/><path class="cls-1" d="M27.54,6.59a1.8,1.8,0,1,0,1.8,1.8A1.76,1.76,0,0,0,27.54,6.59Z"/></g></g></g></svg>