<svg id="圖層_1" data-name="圖層 1" xmlns="http://www.w3.org/2000/svg" viewBox="0 0 389.81 268.73"><defs><style>.cls-1{fill:#fff;}</style></defs><title>logo</title><path class="cls-1" d="M539,581.77c-3.26,6.11-6.5,12.23-9.81,18.31-.75,1.38-1.11,3.47-3,3.53-2.19.07-2.51-2.23-3.31-3.71-3.24-6-6.41-12.11-10.61-17.9q0,14.29,0,28.58c0,3,0,5.92,0,8.87,0,1.7-.71,2.92-2.58,2.9s-2.49-1.33-2.49-3q0-23.52,0-47c0-1.39.24-2.74,1.86-3.13,1.94-.46,3.15.76,3.94,2.21,2.82,5.2,5.51,10.46,8.25,15.7,1.49,2.86,3,5.72,4.81,9.26,2.67-5,5-9.42,7.3-13.8,1.86-3.53,3.64-7.1,5.55-10.61.86-1.58,2-3.2,4.09-2.79,2.42.47,2,2.6,2,4.32q0,22.41,0,44.82c0,1.76.26,3.9-2.29,4-2.88.14-2.67-2.13-2.67-4.08q0-18.11,0-36.22Z" transform="translate(-196.13 -353.85)"/><path class="cls-1" d="M234.86,595.56c0-7.4.09-14.79,0-22.19-.06-3.17.92-4.65,4.33-4.35,5.43.47,10.94-.71,16.33.75,6.36,1.72,9.47,5.33,9.94,11.44.64,8.3-1.65,13.11-8,15.57-2.65,1-3,1.86-1.6,4.25,2.94,5.13,5.61,10.41,8.34,15.66.9,1.74,2.77,3.88-.08,5.27s-3.41-1.49-4.31-3.16c-3.23-6-6.32-12-9.5-18.05-1-2-8.19-3.42-9.85-2-.92.78-.59,1.92-.59,2.92,0,5.62,0,11.24,0,16.86,0,1.85,0,3.83-2.58,3.71-2.17-.1-2.35-1.89-2.35-3.6Q234.85,607.1,234.86,595.56Zm4.94-12.16c0,10.71,0,10.71,10.08,10.54,7-.12,10.76-3.56,10.86-10.07s-3.74-10.21-11.06-10.31C239.79,573.42,239.79,573.42,239.79,583.4Z" transform="translate(-196.13 -353.85)"/><path class="cls-1" d="M365.12,618.44c2.78-9.07,5.73-18.67,8.68-28.27q2.87-9.32,5.76-18.62c.54-1.71,1.08-3.5,3.45-3.35,2,.13,2.65,1.64,3.14,3.24q7.15,23.29,14.29,46.59c.56,1.84.94,3.61-1.5,4.25-2.21.58-2.69-1.1-3.22-2.73-1-3.07-1.21-7.16-3.33-8.89-2.55-2.07-6.81-.62-10.33-.66-8.8-.1-8.79,0-12.05,9.3-.52,1.48-.74,3.42-3.07,3C365.1,622,364.63,620.69,365.12,618.44Zm26.35-13-8.2-27.68c-3.39,8.56-6,17.22-8.55,25.91-.54,1.86.92,1.76,2.1,1.77Z" transform="translate(-196.13 -353.85)"/><path class="cls-1" d="M555.93,595.52c0-7.4.07-14.8,0-22.2,0-2.88.68-4.38,4-4.31,7.55.17,15.1.06,22.65,0,1.71,0,3.54,0,3.43,2.32s-2,2.19-3.64,2.18c-5.92,0-11.85.11-17.76-.06-2.6-.07-3.76.53-3.61,3.4.22,4.28.18,8.59,0,12.87-.1,2.48.68,3.5,3.25,3.3,2.35-.18,4.73,0,7.1,0,1.57,0,2.57.54,2.61,2.25s-1,2.28-2.56,2.24c-.44,0-.89,0-1.33,0-9,.2-9,.2-9,9.43,0,11,0,11,11.05,11,3.55,0,7.11,0,10.66,0,1.61,0,3.16.22,3.24,2.15.1,2.32-1.69,2.36-3.41,2.36-7.55,0-15.1-.12-22.65,0-3.26.07-4-1.4-4-4.3C556,610.62,555.93,603.07,555.93,595.52Z" transform="translate(-196.13 -353.85)"/><path class="cls-1" d="M303.75,590.85c0,5.92.1,11.84,0,17.76-.18,8.59-5.64,13.68-14.58,13.8-9.65.14-15.54-4.69-15.72-13.53-.25-12.13-.09-24.27-.11-36.41,0-1.71,0-3.41,2.4-3.38s2.27,1.82,2.27,3.47c0,10.8-.08,21.61,0,32.41.05,4.44.14,9.06,4.85,11.62,7.24,3.93,15.13-.09,16-8.24a70.49,70.49,0,0,0,.16-7.54c0-9,0-18.06,0-27.08,0-1.84-1-4.66,2.44-4.59,3.09.06,2.14,2.67,2.17,4.39C303.82,579.31,303.76,585.08,303.75,590.85Z" transform="translate(-196.13 -353.85)"/><path class="cls-1" d="M319.13,595.92c0,3.84-.1,7.69,0,11.53.21,6.4,3,9.83,8.67,10.4,6.48.66,11.09-1.55,11.62-7.81.13-1.57.86-2.92,2.8-2.73,2.27.22,2.38,2,2.22,3.62a12.2,12.2,0,0,1-.92,3.84c-2.54,5.66-9.91,8.78-17.48,7.52-6.64-1.1-11.38-5.56-11.63-12.07-.37-9.6-.36-19.22,0-28.82.23-6.51,4.85-10.94,11.55-12.18,7.29-1.35,14.75,1.52,17.44,6.8a9.88,9.88,0,0,1,1,3.36c.17,1.57.51,3.44-1.8,3.87-2.11.39-2.73-.94-3.26-2.71-1.65-5.53-5.26-7.64-11.53-7-5.25.57-8,3.42-8.61,9a11.9,11.9,0,0,0-.09,1.33Q319.12,589.93,319.13,595.92Z" transform="translate(-196.13 -353.85)"/><path class="cls-1" d="M196.2,595.94c0-4.43-.17-8.87,0-13.3.32-6.74,3.59-10.89,9.69-12.77,6.92-2.14,14.64-.31,18.31,4.34a8.87,8.87,0,0,1,2.2,5.67c0,1.48.17,3.09-1.91,3.39-1.85.27-2.8-.71-3-2.43-.72-6.44-7.52-8.17-13.12-7-4.46.94-7,3.91-7.09,8.43-.16,9-.24,18,0,27,.16,5.16,3.7,8.17,9,8.6,6.33.52,9.41-1.47,10.93-7.08.46-1.68.52-3.84,3.07-3.48,2.89.41,2.13,2.79,2,4.57a9.58,9.58,0,0,1-1.25,3.73c-3,5.27-10.49,8-17.55,6.54-6.61-1.39-10.56-5.77-11.27-12.51a12.78,12.78,0,0,1-.07-1.33q0-6.21,0-12.41Z" transform="translate(-196.13 -353.85)"/><path class="cls-1" d="M465.64,597.67c0-6.94-.09-13.89,0-20.83,0-2.44-.62-3.52-3.22-3.32s-5,0-7.53,0c-1.65,0-3-.29-3-2.33,0-1.73,1.15-2.18,2.68-2.18q13.52,0,27,0c1.7,0,3,.49,2.88,2.43-.11,1.65-1.32,2.15-2.83,2.06a7.21,7.21,0,0,0-.89,0c-3.21.21-7.39-1.37-9.39.65-2.19,2.21-.69,6.45-.72,9.79-.1,11.37,0,22.75,0,34.13,0,1.86.45,4.25-2.49,4.2s-2.53-2.37-2.54-4.27C465.62,611.26,465.64,604.46,465.64,597.67Z" transform="translate(-196.13 -353.85)"/><path class="cls-1" d="M407.89,595.44c0-6.81-.11-13.62.06-20.42.06-2.18-1.43-5.82,2.62-5.8,3.88,0,2.27,3.54,2.29,5.52q.22,19.75,0,39.5c0,2.87.73,3.88,3.69,3.75,5.17-.23,10.35-.05,15.53-.07,1.58,0,3,.06,3.08,2.19s-1.32,2.33-3,2.32c-7,0-13.91-.08-20.86,0-3.27,0-3.49-1.95-3.48-4.37C407.91,610.53,407.89,603,407.89,595.44Z" transform="translate(-196.13 -353.85)"/><path class="cls-1" d="M352.57,595.47q0-11.31,0-22.61c0-1.8-.13-3.76,2.53-3.75s2.57,1.91,2.57,3.75q0,22.83,0,45.67c0,1.86-.06,3.81-2.55,3.81s-2.55-2-2.55-3.81Q352.57,607,352.57,595.47Z" transform="translate(-196.13 -353.85)"/><path class="cls-1" d="M491.16,595.71q0-11.31,0-22.61c0-1.93-.24-4.14,2.72-4,2.61.13,2.37,2.17,2.37,3.93q0,22.61,0,45.22c0,2,.06,4.18-2.75,4.05-2.49-.12-2.36-2.2-2.36-4Q491.16,607,491.16,595.71Z" transform="translate(-196.13 -353.85)"/><path class="cls-1" d="M328.91,415.55c4.24,4.66,7.86,9,9.93,14.7,2.41,6.66,2.05,13.37,1.9,20.16,0,.65.15,1.5-.19,1.91A17.61,17.61,0,0,1,338,454.5c-.37-.85-1.2-1.8-1-2.55.95-4.6-.32-8.69-2.58-12.56a14.06,14.06,0,0,0-2.43-2.48c-.72.74-1.47,1.45-2.14,2.23-2.1,2.48-4,5.18-6.28,7.46-5.35,5.33-11.09,10.28-16.32,15.72-8.45,8.78-15.41,18.61-17.26,31-1.69,11.35,1.76,20.89,11.24,28a42,42,0,0,0,21.89,8.12c1.6.15,3.3-.85,5-1.33l-.11-1a7.1,7.1,0,0,0-1.65-.51c-8.25-.46-13.69-5-16.9-12.2A41.23,41.23,0,0,1,306,502.5c-1.07-9.26,3-17.12,9-23.52,8.35-8.84,18.64-15.36,28.92-21.79,11.13-7,22.66-13.46,31.47-23.49,4.11-4.68,8.05-9.51,9.24-16,.28-1.52,1.59-2.86,2.42-4.28l.9,0c.12,1.23.59,2.53.31,3.66-1,3.88-2.19,7.69-3.27,11.54-.77,2.74-1.16,5.63-2.23,8.25C378,448.71,370,458.16,360,465.72c-8,6-16.75,11.15-25,17-6.37,4.51-12.62,9.24-18.53,14.33-3.55,3.06-6.51,7.14-5.42,12.25,1.23,5.77,4.34,10.26,10.14,12.79a20.32,20.32,0,0,0,8.06,1.55,10.52,10.52,0,0,0,10.06-6.14c.85-1.83.44-2.89-2.06-4.78-.25,1.36-.19,2.71-.75,3.73-1.14,2.07-2.67,3.91-5.45,3.64-2.23-.21-4.58-2.52-5.12-4.95-.68-3,.86-6.76,3.31-8,3.62-1.79,8-1.15,10.18,1.67s3.91,5.69,6.15,8.29c7.42,8.66,17.08,12.87,28.31,13.65,1.35.1,2.76-.55,4.14-.85l.06-.95a16.42,16.42,0,0,0-3.15-1c-7.62-.88-12-6.15-15.24-12.16a32.68,32.68,0,0,1-3.43-13.09c-.22-3.63,1.27-7.42,2.28-11.07,2-7.36,7.66-12.22,12.77-17.3a78.72,78.72,0,0,0,16.86-24.49c.87-2,.8-4.38,1.37-6.53.2-.74,1-1.31,1.58-2,.46.73,1.28,1.43,1.31,2.18.3,6.59,3.67,11.92,7.43,16.82,6.62,8.64,14.36,16.47,20.46,25.43,7.74,11.37,7.68,26.94-3.77,37.38a17.74,17.74,0,0,1-12,5,2.64,2.64,0,0,0-.82.16,7.66,7.66,0,0,0-1.07.88c1.52.62,2.71,1.47,3.93,1.53a35.19,35.19,0,0,0,19.47-5,44.18,44.18,0,0,0,15.09-15c2.68-4.2,6.59-6.23,12-3.15,1.79,1,3.29,5.4,2.58,7.73-.94,3.11-3,4.84-5.93,4.29a7.82,7.82,0,0,1-3.73-2.54,16.65,16.65,0,0,1-2-3.6c-2.25,1-2.57,3-1,5.41,2.61,4.1,6.58,5.08,11.11,5.08,9.27,0,16.5-9,17.25-15.66a11.79,11.79,0,0,0-2.83-8.11c-8.09-9.12-18.08-15.92-28.43-22.28-11.45-7-23.08-14-31.25-25a78.52,78.52,0,0,1-9.71-17.18c-2.69-6.66-4.07-13.84-5.94-20.82a8.34,8.34,0,0,1,.18-2.66l.95-.22c.69,1.24,1.72,2.4,2,3.72,2.16,9.71,8.35,16.7,15.41,23.09,9.45,8.56,20.58,14.69,31.11,21.7,7.35,4.89,14,10.85,21.11,16.09,5.85,4.29,8.87,10.32,10.73,16.92,3.13,11.1-.94,26.47-13.7,31.85-1.66.7-3.65.62-5.44,1.06a7.9,7.9,0,0,0-2,1.16,9,9,0,0,0,1.82,1.74,4.06,4.06,0,0,0,2.19.27c10.85-1.08,20.78-4.2,28.27-12.76a26.48,26.48,0,0,0,6.65-15.59c1.13-12.42-3.91-22.59-11.34-31.75-4.31-5.31-9.51-9.89-14.25-14.85-5.27-5.51-10.48-11.07-15.72-16.62l-1.63-1.71c-5.48,5.2-5,11.89-5.22,18.39l-.84.2c-.57-.68-1.6-1.35-1.63-2.05a131.47,131.47,0,0,1-.2-14.43,28.75,28.75,0,0,1,2.21-10c1.85-4,4.55-7.65,7.1-11.29,1.11-1.58,2.15-.34,2.73.79,3.42,6.57,8.52,11.79,13.74,16.85,4.61,4.47,9.65,8.49,14.5,12.72a80.33,80.33,0,0,1,16.35,19,41.72,41.72,0,0,1,5.93,27.38c-.78,5.83-3.55,11-7,15.66a64,64,0,0,1-19.06,17.37c-6.78,4-14.31,6.43-22.36,5.38a18.17,18.17,0,0,1-13.19-8.58c-.61-.94-1.2-1.89-1.75-2.87-.92-1.63-2-1.5-3.09-.27a41.68,41.68,0,0,1-23.85,13c-8.31,1.54-15.72-.69-21.3-7.47-2-2.37-1.91-2.17-3.9.28a20.68,20.68,0,0,1-6.24,5.33c-8.15,4.21-16.29,2.58-24.17-1A41.78,41.78,0,0,1,344.2,521c-1.89-2.09-2.62-1.58-3.69,1A16.8,16.8,0,0,1,332,530.5c-8.14,4-16.18,2.55-24-1.1a60.51,60.51,0,0,1-25.78-22.89c-5.84-9.22-7-18.95-3.53-29.43,4.4-13.41,13.31-23.31,23.82-32.11,8.32-7,16.27-14.29,22.74-23.06A63,63,0,0,0,328.91,415.55Zm65.25,99-.92-.05a6.81,6.81,0,0,0-.79,1.88c-.47,5.23,2.06,7.46,6.62,8.78,6.58,1.9,17.15-2.61,20.48-10.69,1.64-4,3.42-8.19.57-12.26a51.83,51.83,0,0,0-6.62-7.44c-7.3-7-15.61-13.09-21.11-21.88-1-1.57-2.05-1.39-3,.11a16,16,0,0,1-1.95,3.05c-7.23,7.1-14.46,14.2-21.83,21.16-3.21,3-5.72,6.36-5.06,10.93,1.38,9.43,8,15.92,17.77,17.45a10.11,10.11,0,0,0,8.48-2.68c2.79-2.34,3.31-5.41,1.2-8a26.41,26.41,0,0,1-1.2,2.47,10.11,10.11,0,0,1-2.08,2.86c-2.53,1.9-5.76,1.13-7.78-1.65-1.62-2.23-1.09-6.84,1-8.5,4.4-3.55,6.62-3.61,11.26,0,1.47,1.13,2.51,1.14,3.86-.17,3.22-3.1,5.59-3.33,9.84-1,3.24,1.73,2.73,4.78,2.44,7.65a5.88,5.88,0,0,1-4.84,4.72,5.29,5.29,0,0,1-5.48-3.88C394.7,516.39,394.43,515.45,394.15,514.52Z" transform="translate(-196.13 -353.85)"/><path class="cls-1" d="M390.27,407.46a8.68,8.68,0,0,1-.58-2c-.21-3.88-.43-7.77-.5-11.66s-1.7-7.15-3.38-10.51c-3.32-6.63-3.25-13.42-.27-20.18,1.13-2.56,2.3-5.1,3.54-7.6.34-.69,1-1.61,1.55-1.7s1.41.78,1.72,1.43c1.94,4.09,4,8.14,5.57,12.38,1.91,5.27,1.08,10.55-1.6,15.37a27.86,27.86,0,0,0-3.9,14.55,65.61,65.61,0,0,1-.3,7.26,12.3,12.3,0,0,1-.86,2.68Z" transform="translate(-196.13 -353.85)"/><path class="cls-1" d="M359.9,414.24c5.39,5.66,5.22,18-.22,22.82a95,95,0,0,1-8.66,6.54c-.64.45-1.68.34-2.54.49a8.9,8.9,0,0,1,0-2.55,24.35,24.35,0,0,0,.29-12.9,4.22,4.22,0,0,1,1.46-4.85C353.57,420.83,356.6,417.53,359.9,414.24Z" transform="translate(-196.13 -353.85)"/><path class="cls-1" d="M417.87,424.76c.62-2.52,1.27-5.52,2.14-8.44a1.58,1.58,0,0,1,2.84-.77c3.41,3.17,6.79,6.36,10,9.7.54.55.45,1.91.34,2.86-.34,3-1,6.05-1.15,9.1-.06,1.36,1,2.75,1.24,4.17a3.56,3.56,0,0,1-.37,2.5c-.23.33-1.64.24-2.19-.13-2.46-1.66-4.86-3.42-7.17-5.27C419.36,435.1,418.47,430.25,417.87,424.76Z" transform="translate(-196.13 -353.85)"/><path class="cls-1" d="M385.89,402.48c-.6.13-.93.32-1.12.22-3.8-2-7.77-3.75-11.33-6.12-4.28-2.86-4.76-5.25-3.06-10.11A26.68,26.68,0,0,1,372,382c.45-.8,1.6-1.2,2.44-1.77.31.76,1,1.55.89,2.27-.66,6.36,2.86,10.57,7.3,14.25A8.19,8.19,0,0,1,385.89,402.48Z" transform="translate(-196.13 -353.85)"/><path class="cls-1" d="M395.32,401.9a18.22,18.22,0,0,1,2.57-3.55c3.89-3.31,7.29-7,8.56-12.05.47-1.87.08-4,.08-6.42a8.83,8.83,0,0,1,2.39,1.18,10.77,10.77,0,0,1-3.8,17.72c-2.27.93-4.44,2.08-6.69,3.08a20.62,20.62,0,0,1-2.35.74Z" transform="translate(-196.13 -353.85)"/></svg>