<svg xmlns="http://www.w3.org/2000/svg" viewBox="0 0 24.46 27.83"><defs><style>.cls-1{fill:#fff;}</style></defs><title>資產 4hdpi</title><g id="圖層_2" data-name="圖層 2"><g id="圖層_19" data-name="圖層 19"><path class="cls-1" d="M17.12,18H15.9a.75.75,0,0,1-.73-.57.92.92,0,0,1,.23-.84,13.83,13.83,0,0,0,4.17-9.3,7.34,7.34,0,1,0-14.67,0,13.84,13.84,0,0,0,4.17,9.3.92.92,0,0,1,.23.84.75.75,0,0,1-.73.57H7.34A7.35,7.35,0,0,0,0,25.38V27a.82.82,0,0,0,.82.82H23.64a.82.82,0,0,0,.82-.82V25.38A7.35,7.35,0,0,0,17.12,18Zm5.71,8.15H1.63v-.82a5.71,5.71,0,0,1,5.71-5.71H8.56a2.38,2.38,0,0,0,2.31-1.81,2.54,2.54,0,0,0-.75-2.48,12.37,12.37,0,0,1-3.6-8.05,5.71,5.71,0,1,1,11.41,0,12.37,12.37,0,0,1-3.6,8.05,2.54,2.54,0,0,0-.75,2.48,2.38,2.38,0,0,0,2.31,1.81h1.22a5.71,5.71,0,0,1,5.71,5.71Z"/></g></g></svg>