<svg xmlns="http://www.w3.org/2000/svg" viewBox="0 0 35.93 35.93"><defs><style>.cls-1{fill:#fff;}</style></defs><title>資產 15hdpi</title><g id="圖層_2" data-name="圖層 2"><g id="桌機"><g id="icon"><path class="cls-1" d="M35.72,4A.7.7,0,0,0,35,3.82l-1.22.52A11,11,0,0,0,35.3,1.13a.9.9,0,0,0-.12-.9.56.56,0,0,0-.73-.15,40.06,40.06,0,0,1-4.39,2.1c0,.07-.06,0-.12,0C29,1.5,26.57,0,24.87,0c-4.33.07-7.81,4.57-7.81,10v.3c-6.34-1.5-9.82-3.74-13.6-8.61L2.85,1l-.37.9A11.8,11.8,0,0,0,4.26,14.15a4.6,4.6,0,0,1-2.5-1.35.63.63,0,0,0-.85-.07,1,1,0,0,0-.3,1A14.48,14.48,0,0,0,5.9,21.78,4.21,4.21,0,0,1,3,20.88a.73.73,0,0,0-.85.07.93.93,0,0,0-.24,1c1.1,3.82,3.23,5.84,6.65,6.36a12.91,12.91,0,0,1-7.68,2.4.9.9,0,0,0-.79.67,1.2,1.2,0,0,0,.24,1.12c2.2,2.17,7.07,3.44,13.11,3.44,10.73,0,19.51-11.75,19.51-26.2V9.51a7.29,7.29,0,0,0,3-4.57A1.15,1.15,0,0,0,35.72,4ZM32.06,8.31l-.37.15V9.73c0,13.62-8.23,24.7-18.29,24.7-5.55,0-9.27-1.12-11.28-2.32a13.23,13.23,0,0,0,8.54-3.82l1.52-1.35H10.35c-3.48,0-5.61-1.2-6.83-4a7.9,7.9,0,0,0,3.54.37,9.59,9.59,0,0,1,1.46-.07l.18-1.5A12,12,0,0,1,2.3,14.9a7.7,7.7,0,0,0,3.78.82H8L6.45,14.37C5.17,13.25,1.39,9.28,3.22,3.6c3.9,4.72,7.62,6.89,14.33,8.38l.73.15V10c0-4.64,2.93-8.46,6.59-8.53,1.4-.07,3.72,1.5,4.39,1.95a1.17,1.17,0,0,0,1.1.15c.91-.37,2-.9,3.23-1.5a11.57,11.57,0,0,1-2.26,3.14,1,1,0,0,0-.18,1,.57.57,0,0,0,.79.37l2.38-1A4.86,4.86,0,0,1,32.06,8.31Z"/></g></g></g></svg>