<?xml version="1.0" encoding="utf-8"?>
<!-- Generator: Adobe Illustrator 22.0.1, SVG Export Plug-In . SVG Version: 6.00 Build 0)  -->
<svg version="1.1" id="圖層_1" xmlns="http://www.w3.org/2000/svg" xmlns:xlink="http://www.w3.org/1999/xlink" x="0px" y="0px"
	 viewBox="0 0 1580 1080" style="enable-background:new 0 0 1580 1080;" xml:space="preserve">
<style type="text/css">
	.st0{clip-path:url(#SVGID_2_);fill-rule:evenodd;clip-rule:evenodd;fill:#FFFFFF;}
</style>
<g>
	<g>
		<defs>
			<rect id="SVGID_1_" x="772" y="526" width="36" height="28.9"/>
		</defs>
		<use xlink:href="#SVGID_1_"  style="overflow:visible;fill:#FFFFFF;"/>
		<clipPath id="SVGID_2_">
			<use xlink:href="#SVGID_1_"  style="overflow:visible;"/>
		</clipPath>
		<path class="st0" d="M807,529.3c-0.3-0.2-0.7-0.2-0.9,0c-0.2,0.1-0.5,0.3-0.8,0.4c1.1-1.3,1.1-2.2,1.1-2.5c0-0.3-0.2-0.5-0.5-0.7
			c-0.3-0.1-0.6-0.1-0.8,0.1c-1.5,1.1-3,1.3-3.8,1.3c-1.4-1.3-3.2-2-5.2-2c-4.2,0-7.6,3.4-7.6,7.6c0,0.3,0,0.6,0.1,0.9
			c-7-0.2-12.6-6.8-12.7-6.8c-0.2-0.2-0.4-0.3-0.7-0.3c-0.3,0-0.5,0.2-0.6,0.4c-1.8,3-1.1,5.9,0.2,7.9c-0.2-0.1-0.5-0.1-0.7,0
			c-0.3,0.1-0.4,0.4-0.4,0.7c-0.1,3.2,1.4,5.1,2.9,6.2c-0.1,0-0.2,0.1-0.3,0.2c-0.2,0.2-0.3,0.5-0.2,0.8c1,3.3,3.4,4.5,5.1,5
			c-1.9,1.4-4.3,1.7-6.1,1.7c-1.2,0-2-0.1-2-0.1c-0.4-0.1-0.7,0.1-0.9,0.5c-0.1,0.3,0,0.7,0.3,1c3.6,2.7,8,3.3,11.1,3.3
			c2.4,0,4.1-0.4,4.2-0.4c15.6-3.7,16.2-17.7,16.2-20.2c2.9-2.7,3.4-3.7,3.5-4C807.4,529.8,807.2,529.5,807,529.3L807,529.3z
			 M802.4,533.3c-0.2,0.2-0.3,0.4-0.3,0.6c0,0.1,0.9,15.3-15,19c0,0-1.6,0.3-3.8,0.3c-2.1,0-4.8-0.3-7.4-1.4
			c2.4-0.2,5.3-0.9,7.5-3.2c0.2-0.2,0.3-0.6,0.1-0.9c-0.1-0.3-0.4-0.5-0.7-0.5c-0.1,0-3.3,0-4.9-3c0.7,0,1.4-0.1,1.9-0.3
			c0.3-0.1,0.5-0.5,0.5-0.8c0-0.3-0.3-0.6-0.6-0.7c-0.2,0-3.8-0.9-4.4-4.7c0.6,0.2,1.3,0.4,1.9,0.3c0.3,0,0.6-0.3,0.7-0.6
			c0.1-0.3,0-0.6-0.3-0.8c-0.2-0.1-3.6-3.1-2.1-7.1c2,2,7.5,6.9,14.1,6.5c0.2,0,0.5-0.1,0.6-0.3c0.1-0.2,0.2-0.4,0.1-0.7
			c-0.1-0.5-0.2-1-0.2-1.5c0-3.3,2.7-6,6-6c1.6,0,3.1,0.6,4.3,1.8c0.1,0.1,0.3,0.2,0.6,0.2l0.1,0c0.6,0,1.5-0.1,2.6-0.4
			c-0.3,0.4-0.8,0.8-1.4,1.2c-0.3,0.2-0.4,0.6-0.3,0.9c0.1,0.3,0.5,0.5,0.8,0.5c0.1,0,0.7-0.1,1.4-0.2
			C803.7,532,803.2,532.6,802.4,533.3L802.4,533.3z M802.4,533.3"/>
	</g>
</g>
</svg>
